<svg xmlns="http://www.w3.org/2000/svg" xmlns:xlink="http://www.w3.org/1999/xlink" width="500" zoomAndPan="magnify"
    viewBox="0 0 375 374.999991" height="500" preserveAspectRatio="xMidYMid meet" version="1.0">
    <defs>
        <clipPath id="1eec2bcbc9">
            <path
                d="M 150.300781 111.976562 L 229.800781 111.976562 L 229.800781 202.726562 L 150.300781 202.726562 Z M 150.300781 111.976562 "
                clip-rule="nonzero" />
        </clipPath>
        <clipPath id="f5c127eb1f">
            <path d="M 115 201 L 260.410156 201 L 260.410156 263.664062 L 115 263.664062 Z M 115 201 "
                clip-rule="nonzero" />
        </clipPath>
    </defs>
    <g clip-path="url(#1eec2bcbc9)">
        <path fill="#000000"
            d="M 228.375 138.28125 L 202.554688 138.28125 L 202.554688 113.109375 C 202.554688 112.476562 202.054688 111.976562 201.417969 111.976562 L 178.597656 111.976562 C 177.960938 111.976562 177.460938 112.476562 177.460938 113.109375 L 177.460938 138.28125 L 151.640625 138.28125 C 151.003906 138.28125 150.503906 138.78125 150.503906 139.414062 L 150.503906 162.160156 C 150.503906 162.796875 151.003906 163.292969 151.640625 163.292969 L 177.460938 163.292969 L 177.460938 219.617188 C 177.460938 220.253906 177.960938 220.75 178.597656 220.75 L 201.417969 220.75 C 202.054688 220.75 202.554688 220.253906 202.554688 219.617188 L 202.554688 163.273438 L 228.375 163.273438 C 229.011719 163.273438 229.511719 162.773438 229.511719 162.140625 L 229.511719 139.414062 C 229.511719 138.78125 229.011719 138.28125 228.375 138.28125 Z M 227.238281 161.007812 L 201.417969 161.007812 C 200.78125 161.007812 200.28125 161.503906 200.28125 162.140625 L 200.28125 218.460938 L 179.734375 218.460938 L 179.734375 162.140625 C 179.734375 161.503906 179.234375 161.007812 178.597656 161.007812 L 152.777344 161.007812 L 152.777344 140.523438 L 178.597656 140.523438 C 179.234375 140.523438 179.734375 140.027344 179.734375 139.390625 L 179.734375 114.242188 L 200.28125 114.242188 L 200.28125 139.414062 C 200.28125 140.050781 200.78125 140.546875 201.417969 140.546875 L 227.238281 140.546875 Z M 227.238281 161.007812 "
            fill-opacity="1" fill-rule="nonzero" />
    </g>
    <g clip-path="url(#f5c127eb1f)">
        <path fill="#000000"
            d="M 258.785156 259.421875 Z M 149.4375 216.109375 L 132.15625 247.96875 L 122.402344 256.90625 L 143.054688 218.832031 L 151.839844 211.679688 Z M 166.269531 242.464844 C 168.839844 241.753906 171.175781 241.453125 173.296875 241.453125 C 182.054688 241.453125 187.054688 246.589844 188.980469 249.117188 L 188.980469 259.421875 L 122.414062 259.421875 L 132.125 250.523438 C 132.949219 250.542969 133.746094 250.554688 134.523438 250.554688 C 154.527344 250.554688 159.703125 244.28125 166.269531 242.464844 Z M 206.527344 241.453125 C 208.644531 241.453125 210.984375 241.753906 213.554688 242.464844 C 220.121094 244.28125 225.292969 250.554688 245.296875 250.554688 C 246.074219 250.554688 246.875 250.542969 247.695312 250.523438 L 257.40625 259.421875 L 190.839844 259.421875 L 190.839844 249.117188 C 192.769531 246.589844 197.765625 241.453125 206.527344 241.453125 Z M 191.773438 205.277344 C 192.882812 203.832031 194.328125 203.15625 196.285156 203.15625 C 199.667969 203.15625 203.914062 205.160156 207.65625 206.921875 C 210.25 208.148438 212.703125 209.300781 214.734375 209.730469 C 216.328125 210.070312 217.914062 210.242188 219.441406 210.242188 C 221.722656 210.242188 223.492188 209.871094 224.683594 209.503906 L 228.75 217 L 245.9375 248.6875 C 245.722656 248.6875 245.511719 248.6875 245.296875 248.6875 C 239.03125 248.6875 233.734375 248.066406 229.105469 246.792969 C 225.148438 245.703125 222.3125 244.308594 219.808594 243.074219 C 217.859375 242.117188 216.023438 241.214844 214.050781 240.667969 C 211.460938 239.953125 208.933594 239.589844 206.527344 239.589844 C 199.96875 239.589844 195.375 242.28125 192.671875 244.535156 C 192.355469 244.800781 192.054688 245.066406 191.773438 245.332031 Z M 236.769531 218.832031 L 257.425781 256.910156 L 247.667969 247.972656 L 230.386719 216.109375 L 227.984375 211.683594 Z M 264.09375 260.328125 L 238.449219 213.050781 C 238.054688 212.324219 237.296875 211.871094 236.472656 211.871094 L 231.25 211.871094 L 225.535156 207.171875 C 225.535156 207.171875 223.328125 208.375 219.441406 208.375 C 218.175781 208.375 216.726562 208.25 215.121094 207.90625 C 210.460938 206.921875 202.519531 201.292969 196.285156 201.292969 C 193.777344 201.292969 191.546875 202.199219 189.910156 204.683594 C 188.277344 202.199219 186.046875 201.292969 183.539062 201.292969 L 183.539062 203.15625 C 185.492188 203.15625 186.941406 203.832031 188.050781 205.277344 L 188.050781 245.332031 C 187.769531 245.066406 187.46875 244.800781 187.152344 244.539062 C 184.449219 242.28125 179.851562 239.589844 173.292969 239.589844 C 170.890625 239.589844 168.359375 239.953125 165.773438 240.667969 C 163.800781 241.214844 161.960938 242.117188 160.015625 243.074219 C 157.511719 244.308594 154.671875 245.703125 150.714844 246.792969 C 146.089844 248.066406 140.792969 248.6875 134.523438 248.6875 C 134.3125 248.6875 134.101562 248.6875 133.886719 248.6875 L 151.074219 217 L 155.140625 209.503906 C 156.332031 209.871094 158.101562 210.242188 160.378906 210.242188 C 161.910156 210.242188 163.492188 210.070312 165.089844 209.730469 C 167.121094 209.300781 169.570312 208.148438 172.167969 206.921875 C 175.910156 205.160156 180.15625 203.15625 183.539062 203.15625 L 183.539062 201.292969 C 177.300781 201.292969 169.363281 206.921875 164.703125 207.90625 C 163.097656 208.25 161.648438 208.375 160.378906 208.375 C 156.496094 208.375 154.285156 207.171875 154.285156 207.171875 L 154.285156 207.175781 L 154.285156 207.171875 L 148.574219 211.871094 L 143.351562 211.871094 C 142.527344 211.871094 141.769531 212.324219 141.375 213.050781 L 115.726562 260.328125 C 114.914062 261.832031 116 263.660156 117.703125 263.660156 L 262.117188 263.660156 C 263.824219 263.660156 264.910156 261.832031 264.09375 260.328125 "
            fill-opacity="1" fill-rule="nonzero" />
    </g>
</svg>