<svg xmlns="http://www.w3.org/2000/svg" xmlns:xlink="http://www.w3.org/1999/xlink" width="1000" zoomAndPan="magnify"
    viewBox="0 0 750 749.999995" height="1000" preserveAspectRatio="xMidYMid meet" version="1.0">
    <defs>
        <g />
        <clipPath id="8d9375f6e1">
            <path d="M 106 163 L 644 163 L 644 702 L 106 702 Z M 106 163 " clip-rule="nonzero" />
        </clipPath>
        <clipPath id="e8bd74a62a">
            <path
                d="M 286.226562 802.5 L 5.234375 343.960938 L 463.773438 62.96875 L 744.765625 521.507812 Z M 286.226562 802.5 "
                clip-rule="nonzero" />
        </clipPath>
        <clipPath id="962a31be00">
            <path
                d="M 145.730469 573.230469 C 68.136719 446.609375 107.882812 281.058594 234.503906 203.464844 C 361.125 125.871094 526.675781 165.617188 604.269531 292.238281 C 681.863281 418.859375 642.117188 584.410156 515.496094 662.003906 C 388.875 739.597656 223.324219 699.851562 145.730469 573.230469 L 154.902344 567.609375 C 229.390625 689.167969 388.320312 727.324219 509.875 652.832031 C 631.433594 578.34375 669.589844 419.414062 595.097656 297.859375 C 520.609375 176.300781 361.679688 138.144531 240.125 212.636719 C 118.566406 287.125 80.410156 446.054688 154.902344 567.609375 Z M 145.730469 573.230469 "
                clip-rule="nonzero" />
        </clipPath>
        <clipPath id="0b52991bf0">
            <path d="M 106 163 L 644 163 L 644 579 L 106 579 Z M 106 163 " clip-rule="nonzero" />
        </clipPath>
        <clipPath id="2ca70b81ca">
            <path
                d="M 273.054688 781.003906 L -3.546875 329.632812 L 478.277344 34.371094 L 754.878906 485.742188 Z M 273.054688 781.003906 "
                clip-rule="nonzero" />
        </clipPath>
        <clipPath id="bf747dbe8d">
            <path
                d="M 142.910156 568.523438 C 76.28125 454.636719 102.128906 309.226562 203.925781 225.28125 C 305.726562 141.332031 453.394531 143.652344 552.503906 230.757812 C 651.617188 317.859375 672.886719 464.007812 602.707031 575.746094 C 601.6875 577.371094 599.875 578.332031 597.953125 578.257812 C 596.035156 578.1875 594.296875 577.097656 593.398438 575.398438 C 592.503906 573.699219 592.578125 571.652344 593.601562 570.023438 C 660.96875 462.757812 640.550781 322.453125 545.40625 238.835938 C 450.257812 155.214844 308.496094 152.988281 210.769531 233.578125 C 113.042969 314.167969 88.226562 453.757812 152.195312 563.089844 C 153.164062 564.75 153.175781 566.800781 152.226562 568.46875 C 151.273438 570.136719 149.503906 571.171875 147.585938 571.183594 C 145.664062 571.195312 143.882812 570.179688 142.910156 568.523438 Z M 142.910156 568.523438 "
                clip-rule="nonzero" />
        </clipPath>
        <clipPath id="ae0e9dc772">
            <path d="M 126 510 L 623 510 L 623 668.847656 L 126 668.847656 Z M 126 510 " clip-rule="nonzero" />
        </clipPath>
        <clipPath id="f8bfb87480">
            <path
                d="M 227.550781 183.527344 L 522.300781 183.527344 L 522.300781 516.527344 L 227.550781 516.527344 Z M 227.550781 183.527344 "
                clip-rule="nonzero" />
        </clipPath>
    </defs>

    <g clip-path="url(#0b52991bf0)">
        <g clip-path="url(#2ca70b81ca)">
            <g clip-path="url(#bf747dbe8d)">
                <path fill="#000000"
                    d="M 286.226562 802.5 L 5.234375 343.960938 L 463.773438 62.96875 L 744.765625 521.507812 Z M 286.226562 802.5 "
                    fill-opacity="1" fill-rule="nonzero" />
            </g>
        </g>
    </g>
    <g clip-path="url(#ae0e9dc772)">
        <path fill="#000000"
            d="M 328.992188 510.546875 C 328.703125 510.742188 317.675781 512.773438 304.328125 514.90625 C 258.675781 522.359375 245.328125 524.683594 230.042969 527.78125 L 214.761719 530.976562 L 201.21875 551.695312 C 193.773438 563.121094 181.199219 581.515625 173.265625 592.457031 C 160.691406 609.980469 150.34375 626.050781 151.308594 626.632812 C 151.503906 626.730469 152.761719 627.3125 154.210938 627.890625 C 156.144531 628.761719 156.824219 629.828125 157.113281 632.25 L 157.402344 635.445312 L 167.171875 635.734375 C 176.265625 635.929688 185.355469 635.152344 273.765625 625.664062 C 284.015625 624.601562 295.816406 624.308594 318.546875 624.503906 C 335.472656 624.695312 349.402344 624.601562 349.402344 624.308594 C 349.304688 623.148438 338.085938 617.4375 334.023438 616.46875 C 330.058594 615.5 307.230469 615.984375 301.523438 617.046875 C 300.460938 617.242188 295.429688 617.726562 290.402344 618.015625 C 285.371094 618.308594 273.183594 619.179688 263.316406 620.050781 C 247.261719 621.308594 242.714844 621.695312 232.847656 622.859375 C 209.152344 625.570312 175.972656 628.375 172.976562 627.796875 C 170.945312 627.40625 169.492188 626.925781 169.6875 626.730469 C 170.847656 625.472656 241.359375 612.402344 251.128906 611.53125 C 260.898438 610.753906 289.722656 611.140625 295.914062 612.207031 C 297.269531 612.402344 325.609375 613.949219 329.574219 614.046875 C 333.152344 614.144531 354.238281 611.433594 354.238281 610.851562 C 354.238281 609.980469 327.929688 605.816406 313.132812 604.460938 C 295.527344 602.816406 244.648438 602.816406 234.785156 604.460938 C 230.527344 605.140625 219.695312 606.882812 210.601562 608.238281 C 201.605469 609.691406 191.835938 611.238281 188.9375 611.722656 C 180.617188 613.273438 177.425781 612.980469 176.265625 610.660156 C 175.296875 608.914062 175.78125 607.65625 179.359375 602.234375 C 181.777344 598.652344 193.289062 581.128906 205.089844 563.21875 L 226.5625 530.6875 L 233.140625 530.007812 C 236.71875 529.621094 250.550781 528.074219 263.800781 526.425781 C 277.148438 524.78125 291.078125 523.425781 294.753906 523.425781 C 320.191406 523.523438 367.199219 527.683594 370.003906 530.203125 C 371.554688 531.558594 371.648438 534.558594 371.648438 567.378906 L 371.648438 603.105469 L 375.035156 604.558594 C 379.097656 606.203125 381.320312 606.203125 383.546875 604.558594 C 385.09375 603.300781 385.191406 602.71875 384.128906 599.425781 C 383.351562 597.105469 382.675781 585 382.191406 566.21875 C 381.804688 549.953125 381.226562 535.527344 380.839844 534.171875 C 380.160156 531.65625 380.355469 531.65625 391.1875 528.652344 C 411.886719 522.941406 427.460938 521.296875 433.84375 524.007812 C 438.003906 525.652344 444.484375 533.105469 447.773438 539.980469 C 450.480469 545.304688 450.480469 545.695312 450.480469 563.796875 C 450.382812 579.675781 450.09375 583.453125 448.160156 591.101562 C 445.742188 600.976562 443.613281 604.558594 439.550781 605.332031 C 436.746094 605.816406 436.164062 605.914062 414.207031 608.335938 C 406.472656 609.207031 399.410156 610.269531 398.539062 610.851562 C 397.570312 611.335938 395.734375 611.722656 394.378906 611.722656 C 391.769531 611.722656 353.273438 623.148438 352.015625 624.214844 C 351.628906 624.601562 353.464844 625.957031 356.078125 627.214844 L 360.914062 629.441406 L 365.75 626.34375 C 373.199219 621.503906 376.871094 621.40625 385.773438 625.664062 C 394.574219 629.828125 398.441406 630.023438 405.792969 626.632812 C 411.984375 623.824219 416.625 623.535156 428.523438 625.277344 C 436.746094 626.535156 437.519531 627.214844 435.101562 630.699219 C 433.84375 632.441406 432.78125 632.636719 420.785156 632.441406 C 410.242188 632.34375 404.632812 632.828125 389.351562 635.445312 L 370.683594 638.542969 L 355.011719 634.765625 C 339.246094 630.988281 339.246094 630.988281 324.738281 631.570312 C 316.804688 631.957031 308.972656 632.34375 307.328125 632.539062 C 305.78125 632.734375 299.203125 633.21875 292.820312 633.507812 C 286.433594 633.796875 278.601562 634.28125 275.40625 634.476562 C 268.347656 634.960938 256.738281 635.636719 242.519531 636.507812 C 236.71875 636.800781 230.335938 637.1875 228.496094 637.378906 C 226.660156 637.574219 219.210938 638.058594 212.054688 638.347656 C 204.894531 638.734375 198.222656 639.21875 197.351562 639.414062 C 196.382812 639.703125 186.515625 639.898438 175.199219 639.996094 L 154.792969 639.996094 L 147.539062 634.28125 C 143.476562 631.183594 140.089844 628.375 140.089844 627.988281 C 139.992188 627.3125 181.777344 565.542969 188.066406 557.214844 C 190.773438 553.632812 192.707031 550.4375 192.417969 550.148438 C 191.0625 548.695312 184.195312 554.019531 182.261719 557.988281 C 181.199219 560.3125 179.457031 562.441406 178.488281 562.832031 C 175.199219 563.992188 124.613281 631.183594 126.0625 632.441406 C 126.257812 632.636719 133.027344 636.507812 140.960938 641.058594 L 155.46875 649.289062 L 172.394531 647.546875 C 195.125 645.222656 204.703125 644.449219 237.683594 642.707031 C 247.839844 642.222656 258.289062 641.542969 260.898438 641.351562 C 263.609375 641.058594 271.828125 640.574219 279.277344 640.1875 C 286.726562 639.898438 293.496094 639.414062 294.269531 639.316406 C 295.042969 639.121094 302.878906 638.734375 311.679688 638.445312 C 324.929688 637.863281 329.671875 638.058594 339.730469 639.703125 C 346.40625 640.671875 353.851562 642.414062 356.367188 643.578125 C 358.980469 644.640625 362.363281 645.417969 364.105469 645.125 C 365.847656 644.933594 374.164062 644.542969 382.675781 644.15625 C 395.347656 643.578125 399.699219 642.996094 407.824219 640.671875 C 428.039062 634.863281 434.519531 637.671875 433.070312 651.613281 L 432.394531 657.710938 L 443.613281 663.230469 C 449.804688 666.328125 454.832031 668.457031 454.832031 668.070312 C 454.832031 667.683594 453.960938 663.230469 452.800781 658.195312 C 450.191406 646.191406 450.769531 643.09375 455.605469 641.832031 C 457.542969 641.351562 460.734375 641.058594 462.570312 641.253906 C 472.148438 642.222656 492.363281 643.578125 520.121094 645.125 C 525.441406 645.417969 531.730469 645.898438 534.148438 646.09375 C 536.566406 646.289062 544.59375 646.773438 552.042969 647.160156 C 559.488281 647.449219 566.359375 647.933594 567.226562 648.03125 C 568.097656 648.222656 576.03125 648.707031 584.832031 649.09375 L 600.792969 649.773438 L 612.011719 641.253906 C 619.460938 635.539062 623.039062 632.25 622.652344 631.28125 C 620.8125 626.535156 572.933594 563.3125 571.195312 563.3125 C 570.902344 563.3125 571 565.347656 571.386719 567.769531 C 571.96875 572.027344 576.03125 578.613281 600.40625 615.597656 C 609.496094 629.246094 609.496094 629.441406 606.015625 633.796875 C 600.984375 640.089844 598.179688 640.960938 585.414062 640.382812 C 579.222656 639.996094 573.320312 639.605469 572.355469 639.414062 C 571.289062 639.21875 565.875 638.734375 560.265625 638.445312 C 554.652344 638.058594 544.496094 637.378906 537.535156 636.894531 C 530.667969 636.410156 520.414062 635.734375 514.804688 635.445312 C 505.324219 634.960938 501.84375 634.667969 485.109375 633.507812 C 481.433594 633.3125 473.792969 632.828125 467.890625 632.441406 C 462.085938 632.054688 457.058594 631.667969 456.863281 631.472656 C 456.671875 631.28125 457.25 630.023438 458.21875 628.570312 C 460.152344 625.664062 458.800781 625.570312 488.6875 629.152344 C 497.488281 630.214844 506.386719 631.28125 508.515625 631.570312 C 510.644531 631.765625 519.832031 632.828125 528.828125 633.894531 C 543.433594 635.636719 563.164062 637.378906 568.484375 637.378906 C 573.320312 637.378906 597.988281 634.667969 597.988281 634.089844 C 597.988281 633.21875 591.988281 629.441406 589.765625 628.859375 C 588.703125 628.570312 581.738281 628.085938 574.289062 627.699219 C 561.039062 627.117188 543.820312 624.988281 476.402344 615.886719 C 465.183594 614.433594 464.601562 614.242188 465.570312 612.402344 C 466.632812 610.5625 467.3125 610.5625 481.335938 611.140625 C 489.363281 611.53125 497.875 612.015625 500.292969 612.304688 C 515.671875 614.144531 547.980469 619.082031 563.164062 621.984375 C 578.546875 624.890625 599.824219 627.601562 600.597656 626.828125 C 600.886719 626.535156 553.394531 553.535156 542.273438 537.171875 L 535.984375 527.878906 L 516.929688 523.8125 C 481.238281 516.066406 467.3125 514.710938 406.953125 512.679688 C 402.890625 512.484375 401.152344 513.066406 395.925781 516.359375 C 390.125 519.941406 389.351562 520.132812 380.839844 520.519531 C 375.808594 520.714844 368.941406 520.425781 365.363281 519.84375 C 357.527344 518.488281 343.210938 514.035156 342.824219 512.871094 C 342.632812 512.386719 341.664062 512 340.699219 512 C 339.730469 512 338.570312 511.515625 338.28125 511.03125 C 337.699219 510.0625 329.863281 509.675781 328.992188 510.546875 Z M 499.132812 528.460938 C 513.160156 530.007812 525.25 531.363281 526.023438 531.363281 C 526.894531 531.363281 527.183594 531.75 526.894531 532.332031 C 526.605469 532.816406 529.796875 537.367188 534.050781 542.304688 C 539.660156 548.695312 545.464844 557.3125 554.75 572.996094 C 561.910156 585 570.226562 598.652344 573.226562 603.300781 C 578.933594 612.015625 579.511719 614.628906 575.546875 614.628906 C 574.289062 614.628906 561.328125 612.015625 546.722656 608.914062 L 520.121094 603.203125 L 496.910156 603.203125 C 484.140625 603.105469 472.726562 603.105469 471.566406 603.007812 C 470.117188 603.007812 468.859375 601.945312 467.890625 600.203125 C 466.539062 597.492188 466.632812 596.8125 469.730469 588.777344 C 473.886719 578.03125 475.53125 568.734375 474.855469 560.507812 C 473.984375 551.695312 468.179688 540.078125 460.539062 531.847656 L 454.738281 525.652344 L 459.378906 525.363281 C 466.148438 524.878906 470.792969 525.265625 499.132812 528.460938 Z M 413.433594 612.691406 C 418.949219 613.273438 425.140625 613.851562 427.265625 614.144531 C 429.394531 614.335938 431.8125 614.628906 432.585938 614.628906 C 433.359375 614.726562 427.265625 615.789062 418.949219 617.046875 C 410.628906 618.308594 402.410156 619.953125 400.859375 620.824219 C 396.894531 622.859375 395.152344 622.761719 393.898438 620.339844 C 392.347656 617.53125 393.414062 615.597656 396.316406 615.597656 C 397.765625 615.597656 399.796875 615.113281 400.957031 614.433594 C 402.988281 613.371094 402.988281 613.371094 401.152344 612.59375 C 399.3125 611.917969 399.3125 611.820312 401.34375 611.820312 C 402.503906 611.722656 408.019531 612.207031 413.433594 612.691406 Z M 413.433594 612.691406 "
            fill-opacity="1" fill-rule="nonzero" />
    </g>
    <path fill="#000000"
        d="M 560.070312 549.664062 C 560.84375 550.050781 561.425781 550.824219 561.425781 551.308594 C 561.425781 551.792969 562.488281 553.730469 563.84375 555.570312 C 565.875 558.570312 566.066406 558.667969 565.679688 556.535156 C 565.488281 555.179688 565.195312 553.4375 565.195312 552.566406 C 565.101562 551.695312 564.035156 550.535156 562.683594 549.953125 C 559.78125 548.597656 558.234375 548.40625 560.070312 549.664062 Z M 560.070312 549.664062 "
        fill-opacity="1" fill-rule="nonzero" />
    <g clip-path="url(#f8bfb87480)">
        <path fill="#000000"
            d="M 515.265625 274.738281 L 410.011719 274.738281 L 410.011719 190.542969 C 410.011719 190.082031 409.964844 189.625 409.875 189.175781 C 409.785156 188.722656 409.652344 188.285156 409.476562 187.859375 C 409.300781 187.433594 409.082031 187.027344 408.828125 186.644531 C 408.570312 186.261719 408.28125 185.910156 407.953125 185.582031 C 407.628906 185.257812 407.273438 184.964844 406.890625 184.710938 C 406.507812 184.453125 406.105469 184.238281 405.679688 184.0625 C 405.253906 183.886719 404.8125 183.753906 404.363281 183.664062 C 403.910156 183.574219 403.453125 183.527344 402.992188 183.527344 L 346.855469 183.527344 C 346.394531 183.527344 345.9375 183.574219 345.488281 183.664062 C 345.035156 183.753906 344.597656 183.886719 344.171875 184.0625 C 343.746094 184.238281 343.339844 184.453125 342.957031 184.710938 C 342.574219 184.964844 342.21875 185.257812 341.894531 185.582031 C 341.566406 185.910156 341.277344 186.261719 341.019531 186.644531 C 340.765625 187.027344 340.550781 187.433594 340.371094 187.859375 C 340.195312 188.285156 340.0625 188.722656 339.972656 189.175781 C 339.882812 189.625 339.839844 190.082031 339.839844 190.542969 L 339.839844 274.738281 L 234.582031 274.738281 C 234.121094 274.738281 233.664062 274.78125 233.210938 274.871094 C 232.761719 274.960938 232.320312 275.09375 231.894531 275.269531 C 231.46875 275.449219 231.066406 275.664062 230.683594 275.917969 C 230.300781 276.175781 229.945312 276.464844 229.621094 276.792969 C 229.292969 277.117188 229.003906 277.472656 228.746094 277.855469 C 228.492188 278.238281 228.273438 278.644531 228.097656 279.070312 C 227.921875 279.492188 227.789062 279.933594 227.699219 280.382812 C 227.609375 280.835938 227.566406 281.292969 227.566406 281.753906 L 227.566406 337.882812 C 227.566406 338.34375 227.609375 338.800781 227.699219 339.25 C 227.789062 339.703125 227.921875 340.140625 228.097656 340.566406 C 228.273438 340.992188 228.492188 341.398438 228.746094 341.78125 C 229.003906 342.164062 229.292969 342.519531 229.621094 342.84375 C 229.945312 343.167969 230.300781 343.460938 230.683594 343.714844 C 231.066406 343.972656 231.46875 344.1875 231.894531 344.363281 C 232.320312 344.539062 232.761719 344.675781 233.210938 344.765625 C 233.664062 344.855469 234.121094 344.898438 234.582031 344.898438 L 339.839844 344.898438 L 339.839844 611.511719 C 339.839844 611.972656 339.882812 612.429688 339.972656 612.878906 C 340.0625 613.332031 340.195312 613.769531 340.371094 614.195312 C 340.550781 614.621094 340.765625 615.027344 341.019531 615.410156 C 341.277344 615.792969 341.566406 616.148438 341.894531 616.472656 C 342.21875 616.796875 342.574219 617.089844 342.957031 617.34375 C 343.339844 617.601562 343.746094 617.816406 344.171875 617.992188 C 344.597656 618.167969 345.035156 618.304688 345.488281 618.394531 C 345.9375 618.484375 346.394531 618.527344 346.855469 618.527344 L 402.992188 618.527344 C 403.453125 618.527344 403.910156 618.484375 404.363281 618.394531 C 404.8125 618.304688 405.253906 618.167969 405.679688 617.992188 C 406.105469 617.816406 406.507812 617.601562 406.890625 617.34375 C 407.273438 617.089844 407.628906 616.796875 407.953125 616.472656 C 408.28125 616.148438 408.570312 615.792969 408.828125 615.410156 C 409.082031 615.027344 409.300781 614.621094 409.476562 614.195312 C 409.652344 613.769531 409.785156 613.332031 409.875 612.878906 C 409.964844 612.429688 410.011719 611.972656 410.011719 611.511719 L 410.011719 344.898438 L 515.265625 344.898438 C 515.726562 344.898438 516.183594 344.855469 516.636719 344.765625 C 517.085938 344.675781 517.527344 344.539062 517.953125 344.363281 C 518.378906 344.1875 518.78125 343.972656 519.164062 343.714844 C 519.546875 343.460938 519.902344 343.167969 520.230469 342.84375 C 520.554688 342.519531 520.84375 342.164062 521.101562 341.78125 C 521.355469 341.398438 521.574219 340.992188 521.75 340.566406 C 521.925781 340.140625 522.058594 339.703125 522.148438 339.25 C 522.238281 338.800781 522.285156 338.34375 522.285156 337.882812 L 522.285156 281.753906 C 522.285156 281.292969 522.238281 280.835938 522.148438 280.382812 C 522.058594 279.933594 521.925781 279.492188 521.75 279.070312 C 521.574219 278.644531 521.355469 278.238281 521.101562 277.855469 C 520.84375 277.472656 520.554688 277.117188 520.230469 276.792969 C 519.902344 276.464844 519.546875 276.175781 519.164062 275.917969 C 518.78125 275.664062 518.378906 275.449219 517.953125 275.269531 C 517.527344 275.09375 517.085938 274.960938 516.636719 274.871094 C 516.183594 274.78125 515.726562 274.738281 515.265625 274.738281 Z M 508.25 330.867188 L 402.992188 330.867188 C 402.53125 330.867188 402.074219 330.910156 401.625 331 C 401.171875 331.089844 400.734375 331.222656 400.308594 331.402344 C 399.882812 331.578125 399.476562 331.792969 399.09375 332.046875 C 398.710938 332.304688 398.355469 332.59375 398.03125 332.921875 C 397.703125 333.246094 397.414062 333.601562 397.15625 333.984375 C 396.902344 334.367188 396.6875 334.773438 396.507812 335.199219 C 396.332031 335.625 396.199219 336.0625 396.109375 336.515625 C 396.019531 336.964844 395.976562 337.421875 395.976562 337.882812 L 395.976562 604.496094 L 353.871094 604.496094 L 353.871094 337.882812 C 353.871094 337.421875 353.828125 336.964844 353.738281 336.515625 C 353.648438 336.0625 353.515625 335.625 353.339844 335.199219 C 353.164062 334.773438 352.945312 334.367188 352.691406 333.984375 C 352.433594 333.601562 352.144531 333.246094 351.816406 332.921875 C 351.492188 332.59375 351.136719 332.304688 350.753906 332.046875 C 350.371094 331.792969 349.964844 331.578125 349.539062 331.402344 C 349.117188 331.222656 348.675781 331.089844 348.226562 331 C 347.773438 330.910156 347.316406 330.867188 346.855469 330.867188 L 241.597656 330.867188 L 241.597656 288.769531 L 346.855469 288.769531 C 347.316406 288.769531 347.773438 288.726562 348.226562 288.632812 C 348.675781 288.542969 349.117188 288.410156 349.539062 288.234375 C 349.964844 288.058594 350.371094 287.84375 350.753906 287.585938 C 351.136719 287.332031 351.492188 287.039062 351.816406 286.714844 C 352.144531 286.390625 352.433594 286.035156 352.691406 285.652344 C 352.945312 285.269531 353.164062 284.863281 353.339844 284.4375 C 353.515625 284.011719 353.648438 283.574219 353.738281 283.121094 C 353.828125 282.671875 353.871094 282.214844 353.871094 281.753906 L 353.871094 197.558594 L 395.976562 197.558594 L 395.976562 281.753906 C 395.976562 282.214844 396.019531 282.671875 396.109375 283.121094 C 396.199219 283.574219 396.332031 284.011719 396.507812 284.4375 C 396.6875 284.863281 396.902344 285.269531 397.15625 285.652344 C 397.414062 286.035156 397.703125 286.390625 398.03125 286.714844 C 398.355469 287.039062 398.710938 287.332031 399.09375 287.585938 C 399.476562 287.84375 399.882812 288.058594 400.308594 288.234375 C 400.734375 288.410156 401.171875 288.542969 401.625 288.632812 C 402.074219 288.726562 402.53125 288.769531 402.992188 288.769531 L 508.25 288.769531 Z M 508.25 330.867188 "
            fill-opacity="1" fill-rule="nonzero" />
    </g>
    <g fill="#000000" fill-opacity="1">
        <g transform="translate(103.352366, 326.533977)">
            <g>
                <path
                    d="M -22.25 -40.078125 C -23.925781 -39.984375 -25.625 -39.210938 -27.34375 -37.765625 C -29.070312 -36.328125 -30.390625 -34.59375 -31.296875 -32.5625 C -32.210938 -30.507812 -32.410156 -28.5 -31.890625 -26.53125 C -31.367188 -24.5625 -30.117188 -23.140625 -28.140625 -22.265625 C -26.128906 -21.367188 -24.328125 -21.203125 -22.734375 -21.765625 C -21.148438 -22.335938 -19.785156 -23.316406 -18.640625 -24.703125 C -17.503906 -26.097656 -16.195312 -27.601562 -14.71875 -29.21875 C -13.25 -30.832031 -11.820312 -32.28125 -10.4375 -33.5625 C -9.0625 -34.84375 -7.320312 -35.65625 -5.21875 -36 C -3.125 -36.351562 -0.921875 -36.015625 1.390625 -34.984375 C 3.703125 -33.953125 5.488281 -32.648438 6.75 -31.078125 C 8.019531 -29.515625 8.800781 -27.804688 9.09375 -25.953125 C 9.65625 -22.398438 9.144531 -18.851562 7.5625 -15.3125 C 5.988281 -11.78125 4.070312 -9.023438 1.8125 -7.046875 C -0.4375 -5.078125 -2.375 -4.453125 -4 -5.171875 C -4.957031 -5.597656 -5.546875 -6.476562 -5.765625 -7.8125 C -5.816406 -8.257812 -5.867188 -8.945312 -5.921875 -9.875 C -4.003906 -9.976562 -2.097656 -10.84375 -0.203125 -12.46875 C 1.691406 -14.09375 3.144531 -16.03125 4.15625 -18.28125 C 5.144531 -20.507812 5.378906 -22.742188 4.859375 -24.984375 C 4.335938 -27.222656 2.984375 -28.828125 0.796875 -29.796875 C -1.367188 -30.765625 -3.351562 -30.765625 -5.15625 -29.796875 C -6.96875 -28.835938 -8.640625 -27.429688 -10.171875 -25.578125 C -11.703125 -23.722656 -13.296875 -21.894531 -14.953125 -20.09375 C -16.609375 -18.300781 -18.613281 -17.039062 -20.96875 -16.3125 C -23.332031 -15.59375 -25.914062 -15.851562 -28.71875 -17.09375 C -32.570312 -18.820312 -34.953125 -21.410156 -35.859375 -24.859375 C -36.773438 -28.304688 -36.359375 -31.988281 -34.609375 -35.90625 C -33.316406 -38.789062 -31.625 -41.234375 -29.53125 -43.234375 C -27.4375 -45.234375 -25.515625 -45.84375 -23.765625 -45.0625 C -22.085938 -44.3125 -21.582031 -42.648438 -22.25 -40.078125 Z M -22.25 -40.078125 " />
            </g>
        </g>
    </g>
    <g fill="#000000" fill-opacity="1">
        <g transform="translate(117.004795, 295.662624)">
            <g>
                <path
                    d="M 14.234375 2.375 L -11.921875 -13.40625 C -18.160156 -17.113281 -22.539062 -19.207031 -25.0625 -19.6875 C -24.945312 -20.582031 -24.644531 -21.441406 -24.15625 -22.265625 C -23.15625 -23.953125 -21.671875 -24.21875 -19.703125 -23.0625 C -20.179688 -27.382812 -19.5 -31.09375 -17.65625 -34.1875 C -15.820312 -37.28125 -13.28125 -39.160156 -10.03125 -39.828125 C -6.789062 -40.492188 -3.015625 -39.546875 1.296875 -36.984375 C 7.429688 -33.335938 10.84375 -28.773438 11.53125 -23.296875 C 11.882812 -20.421875 11.304688 -17.710938 9.796875 -15.171875 C 8.285156 -12.640625 6.25 -10.722656 3.6875 -9.421875 C 10.375 -5.441406 14.597656 -3.113281 16.359375 -2.4375 C 18.117188 -1.769531 19.425781 -1.34375 20.28125 -1.15625 C 20.15625 -0.25 19.796875 0.695312 19.203125 1.6875 C 18.609375 2.6875 17.941406 3.234375 17.203125 3.328125 C 16.460938 3.421875 15.472656 3.101562 14.234375 2.375 Z M 0.65625 -11.34375 C 2.914062 -12.445312 4.914062 -14.460938 6.65625 -17.390625 C 7.707031 -19.160156 8.015625 -21.035156 7.578125 -23.015625 C 6.703125 -26.546875 4.054688 -29.625 -0.359375 -32.25 C -3.898438 -34.351562 -6.910156 -35.222656 -9.390625 -34.859375 C -11.867188 -34.492188 -13.820312 -33.113281 -15.25 -30.71875 C -16.6875 -28.3125 -17.070312 -25.1875 -16.40625 -21.34375 C -7.707031 -16.269531 -2.019531 -12.9375 0.65625 -11.34375 Z M 0.65625 -11.34375 " />
            </g>
        </g>
    </g>
    <g fill="#000000" fill-opacity="1">
        <g transform="translate(134.234224, 266.624777)">
            <g>
                <path
                    d="M -14.9375 -34.375 C -13.007812 -36.925781 -10.722656 -38.453125 -8.078125 -38.953125 C -5.441406 -39.453125 -3.285156 -39.066406 -1.609375 -37.796875 C 0.0664062 -36.523438 1.191406 -35.273438 1.765625 -34.046875 C 2.335938 -32.816406 2.582031 -31.582031 2.5 -30.34375 C 2.425781 -29.113281 1.960938 -27.617188 1.109375 -25.859375 C -0.222656 -23.191406 -2.65625 -19.523438 -6.1875 -14.859375 C -3.332031 -13.140625 -0.648438 -12.347656 1.859375 -12.484375 C 4.367188 -12.617188 6.597656 -13.976562 8.546875 -16.5625 C 10.472656 -19.113281 10.882812 -21.644531 9.78125 -24.15625 C 11.46875 -25.15625 12.820312 -25.265625 13.84375 -24.484375 C 14.875 -23.710938 15.085938 -22.25 14.484375 -20.09375 C 13.878906 -17.9375 12.800781 -15.832031 11.25 -13.78125 C 8.664062 -10.351562 5.457031 -8.363281 1.625 -7.8125 C -2.195312 -7.257812 -6.296875 -8.632812 -10.671875 -11.9375 C -15.046875 -15.238281 -17.472656 -18.984375 -17.953125 -23.171875 C -18.429688 -27.359375 -17.425781 -31.09375 -14.9375 -34.375 Z M -12.09375 -31.875 C -13.75 -29.6875 -14.410156 -27.25 -14.078125 -24.5625 C -13.753906 -21.875 -12.050781 -19.304688 -8.96875 -16.859375 C -5.03125 -22.066406 -2.789062 -25.828125 -2.25 -28.140625 C -2.03125 -29.128906 -2.03125 -30.117188 -2.25 -31.109375 C -2.46875 -32.097656 -3.109375 -32.992188 -4.171875 -33.796875 C -5.203125 -34.578125 -6.507812 -34.8125 -8.09375 -34.5 C -9.675781 -34.1875 -11.007812 -33.3125 -12.09375 -31.875 Z M -12.09375 -31.875 " />
            </g>
        </g>
    </g>
    <g fill="#000000" fill-opacity="1">
        <g transform="translate(152.638473, 242.134296)">
            <g>
                <path
                    d="M 2.734375 -34.3125 L 9.4375 -27.875 C 13.28125 -24.28125 16.457031 -21.910156 18.96875 -20.765625 C 18.71875 -19.984375 18.238281 -19.21875 17.53125 -18.46875 C 16.832031 -17.707031 16.164062 -17.34375 15.53125 -17.375 C 14.90625 -17.40625 14.164062 -17.726562 13.3125 -18.34375 C 13.050781 -14.6875 11.890625 -11.753906 9.828125 -9.546875 C 5.003906 -4.390625 0.238281 -4.007812 -4.46875 -8.40625 C -6.175781 -10.007812 -7.054688 -11.582031 -7.109375 -13.125 C -7.160156 -14.664062 -6.734375 -16.332031 -5.828125 -18.125 C -4.148438 -21.257812 -1.617188 -24.867188 1.765625 -28.953125 C -1.078125 -31.609375 -3.367188 -33.09375 -5.109375 -33.40625 C -6.859375 -33.726562 -8.804688 -32.742188 -10.953125 -30.453125 C -11.828125 -29.515625 -12.429688 -28.257812 -12.765625 -26.6875 C -13.097656 -25.125 -12.929688 -23.554688 -12.265625 -21.984375 C -14.003906 -20.734375 -15.398438 -20.597656 -16.453125 -21.578125 C -17.742188 -22.796875 -18.03125 -24.578125 -17.3125 -26.921875 C -16.59375 -29.265625 -15.054688 -31.695312 -12.703125 -34.21875 C -10.367188 -36.707031 -7.976562 -38.0625 -5.53125 -38.28125 C -3.09375 -38.507812 -0.335938 -37.1875 2.734375 -34.3125 Z M 4.28125 -26.5 C 3.46875 -25.414062 2.863281 -24.601562 2.46875 -24.0625 C 2.082031 -23.53125 1.550781 -22.800781 0.875 -21.875 C 0.207031 -20.957031 -0.257812 -20.25 -0.53125 -19.75 C -0.8125 -19.257812 -1.132812 -18.644531 -1.5 -17.90625 C -1.875 -17.175781 -2.09375 -16.570312 -2.15625 -16.09375 C -2.21875 -15.625 -2.28125 -15.125 -2.34375 -14.59375 C -2.382812 -13.59375 -1.992188 -12.703125 -1.171875 -11.921875 C 0.335938 -10.515625 1.851562 -9.90625 3.375 -10.09375 C 4.90625 -10.289062 6.300781 -11.0625 7.5625 -12.40625 C 9.6875 -14.675781 10.722656 -17.300781 10.671875 -20.28125 C 10.179688 -20.695312 9.316406 -21.484375 8.078125 -22.640625 C 6.847656 -23.785156 5.582031 -25.070312 4.28125 -26.5 Z M 4.28125 -26.5 " />
            </g>
        </g>
    </g>
    <g fill="#000000" fill-opacity="1">
        <g transform="translate(173.177829, 220.013257)">
            <g>
                <path
                    d="M 1.21875 -5.515625 L -11.546875 -20.453125 L -16.765625 -26.484375 C -23.835938 -34.648438 -28.304688 -39.546875 -30.171875 -41.171875 C -29.691406 -41.742188 -29.117188 -42.316406 -28.453125 -42.890625 C -26.859375 -44.265625 -25.492188 -44.296875 -24.359375 -42.984375 C -24.242188 -42.847656 -23.578125 -42.035156 -22.359375 -40.546875 C -17.953125 -35.015625 -14.300781 -30.570312 -11.40625 -27.21875 C -10.9375 -31.675781 -9.28125 -35.132812 -6.4375 -37.59375 C -4.1875 -39.539062 -1.941406 -40.40625 0.296875 -40.1875 C 2.546875 -39.976562 4.515625 -38.898438 6.203125 -36.953125 C 7.890625 -34.992188 8.75 -32.679688 8.78125 -30.015625 C 8.820312 -27.347656 7.785156 -24.882812 5.671875 -22.625 C 10.148438 -21.164062 13.257812 -20.351562 15 -20.1875 C 16.738281 -20.03125 18.148438 -20.414062 19.234375 -21.34375 C 19.796875 -21.832031 20.175781 -22.300781 20.375 -22.75 C 21.238281 -22.40625 21.894531 -21.976562 22.34375 -21.46875 C 22.769531 -20.957031 22.757812 -20.222656 22.3125 -19.265625 C 21.863281 -18.316406 21.316406 -17.554688 20.671875 -16.984375 C 19.316406 -15.816406 17.523438 -15.351562 15.296875 -15.59375 C 13.078125 -15.863281 10.988281 -16.316406 9.03125 -16.953125 C 7.082031 -17.597656 5.472656 -18.128906 4.203125 -18.546875 C 2.941406 -18.960938 2.082031 -19.253906 1.625 -19.421875 C 0.632812 -18.734375 -0.128906 -18.703125 -0.671875 -19.328125 C -0.992188 -19.691406 -1.253906 -20.1875 -1.453125 -20.8125 C -0.140625 -21.519531 0.835938 -22.15625 1.484375 -22.71875 C 3.398438 -24.375 4.421875 -26.179688 4.546875 -28.140625 C 4.671875 -30.109375 4.179688 -31.734375 3.078125 -33.015625 C 1.960938 -34.296875 0.691406 -35.046875 -0.734375 -35.265625 C -2.160156 -35.484375 -3.488281 -35.066406 -4.71875 -34.015625 C -5.925781 -32.960938 -6.878906 -31.507812 -7.578125 -29.65625 C -8.273438 -27.8125 -8.632812 -25.945312 -8.65625 -24.0625 L -2.140625 -16.515625 C 1.859375 -11.898438 5.144531 -8.769531 7.71875 -7.125 C 7.332031 -6.3125 6.722656 -5.546875 5.890625 -4.828125 C 5.066406 -4.109375 4.289062 -3.800781 3.5625 -3.90625 C 2.84375 -4.007812 2.0625 -4.546875 1.21875 -5.515625 Z M 1.21875 -5.515625 " />
            </g>
        </g>
    </g>
    <g fill="#000000" fill-opacity="1">
        <g transform="translate(197.20612, 199.615577)">
            <g>
                <path
                    d="M 1.703125 -5.875 L -5.375 -15.75 C -9.269531 -21.03125 -12.585938 -25.242188 -15.328125 -28.390625 C -14.816406 -28.929688 -14.226562 -29.445312 -13.5625 -29.9375 C -11.832031 -31.21875 -10.457031 -31.164062 -9.4375 -29.78125 C -9.28125 -29.582031 -8.769531 -28.820312 -7.90625 -27.5 C -5.21875 -23.394531 -2.410156 -19.359375 0.515625 -15.390625 C 3.453125 -11.410156 6.132812 -8.519531 8.5625 -6.71875 C 8.101562 -5.945312 7.425781 -5.226562 6.53125 -4.5625 C 5.601562 -3.882812 4.773438 -3.644531 4.046875 -3.84375 C 3.328125 -4.050781 2.546875 -4.726562 1.703125 -5.875 Z M -14.84375 -38.140625 C -14.21875 -37.296875 -13.988281 -36.367188 -14.15625 -35.359375 C -14.320312 -34.359375 -14.78125 -33.578125 -15.53125 -33.015625 C -16.28125 -32.460938 -17.132812 -32.257812 -18.09375 -32.40625 C -19.050781 -32.550781 -19.847656 -33.054688 -20.484375 -33.921875 C -21.109375 -34.765625 -21.335938 -35.6875 -21.171875 -36.6875 C -21.003906 -37.6875 -20.546875 -38.46875 -19.796875 -39.03125 C -19.035156 -39.582031 -18.171875 -39.773438 -17.203125 -39.609375 C -16.234375 -39.453125 -15.445312 -38.960938 -14.84375 -38.140625 Z M -14.84375 -38.140625 " />
            </g>
        </g>
    </g>
    <g fill="#000000" fill-opacity="1">
        <g transform="translate(207.642681, 191.31081)">
            <g>
                <path
                    d="M 19.96875 -16.203125 L 10.9375 -31.578125 C 9.59375 -33.753906 8.046875 -35.054688 6.296875 -35.484375 C 4.546875 -35.910156 2.832031 -35.609375 1.15625 -34.578125 C -1.488281 -32.941406 -3.425781 -30.25 -4.65625 -26.5 C -1.3125 -21.257812 1.316406 -17.085938 3.234375 -13.984375 C 5.148438 -10.890625 7.039062 -8.082031 8.90625 -5.5625 C 8.363281 -5.070312 7.742188 -4.609375 7.046875 -4.171875 C 5.285156 -3.085938 3.941406 -3.289062 3.015625 -4.78125 C 2.921875 -4.9375 2.085938 -6.398438 0.515625 -9.171875 C -1.054688 -11.941406 -2.675781 -14.671875 -4.34375 -17.359375 C -8.289062 -23.742188 -11.210938 -27.644531 -13.109375 -29.0625 C -12.515625 -29.84375 -11.898438 -30.425781 -11.265625 -30.8125 C -9.472656 -31.925781 -7.976562 -31.507812 -6.78125 -29.5625 C -6.175781 -31.164062 -5.160156 -32.867188 -3.734375 -34.671875 C -2.316406 -36.472656 -0.585938 -38.003906 1.453125 -39.265625 C 3.472656 -40.515625 5.609375 -40.9375 7.859375 -40.53125 C 10.117188 -40.125 12.144531 -38.476562 13.9375 -35.59375 L 20.203125 -25.078125 C 22.410156 -21.492188 24.5625 -18.757812 26.65625 -16.875 C 26.070312 -16.082031 25.335938 -15.414062 24.453125 -14.875 C 23.578125 -14.332031 22.773438 -14.144531 22.046875 -14.3125 C 21.328125 -14.488281 20.632812 -15.117188 19.96875 -16.203125 Z M 19.96875 -16.203125 " />
            </g>
        </g>
    </g>
    <g fill="#000000" fill-opacity="1">
        <g transform="translate(236.35092, 173.438303)">
            <g>
                <path
                    d="M 9.921875 -1.828125 C 9.453125 1.160156 9.597656 3.46875 10.359375 5.09375 C 11.609375 7.78125 14.742188 7.953125 19.765625 5.609375 C 23.410156 3.898438 25.914062 2.023438 27.28125 -0.015625 C 28.65625 -2.066406 28.984375 -3.863281 28.265625 -5.40625 C 27.546875 -6.9375 26.675781 -7.765625 25.65625 -7.890625 C 24.644531 -8.015625 23.304688 -7.691406 21.640625 -6.921875 L 15.234375 -3.921875 C 12.867188 -2.816406 11.097656 -2.117188 9.921875 -1.828125 Z M 9.734375 -17.71875 C 12.242188 -18.894531 13.804688 -20.335938 14.421875 -22.046875 C 15.046875 -23.753906 14.804688 -25.785156 13.703125 -28.140625 C 12.617188 -30.472656 11.03125 -32.113281 8.9375 -33.0625 C 6.84375 -34.019531 4.632812 -33.953125 2.3125 -32.859375 C -2.632812 -30.554688 -4.003906 -27.039062 -1.796875 -22.3125 C -0.691406 -19.9375 0.875 -18.28125 2.90625 -17.34375 C 4.9375 -16.414062 7.210938 -16.539062 9.734375 -17.71875 Z M 11.125 -14.171875 C 9.894531 -13.585938 8.703125 -13.175781 7.546875 -12.9375 C 7.273438 -11.894531 7.125 -10.785156 7.09375 -9.609375 C 7.0625 -8.429688 7.164062 -7.585938 7.40625 -7.078125 C 7.882812 -6.054688 9.488281 -6.1875 12.21875 -7.46875 L 19.359375 -10.796875 C 25.523438 -13.671875 29.644531 -12.890625 31.71875 -8.453125 C 33.175781 -5.328125 32.847656 -2.097656 30.734375 1.234375 C 28.628906 4.566406 25.550781 7.175781 21.5 9.0625 C 17.4375 10.957031 14.09375 11.660156 11.46875 11.171875 C 8.851562 10.679688 7.019531 9.304688 5.96875 7.046875 C 4.925781 4.828125 5.265625 1.992188 6.984375 -1.453125 C 5.304688 -1.773438 4.234375 -2.4375 3.765625 -3.4375 C 3.023438 -5.007812 3.347656 -8.066406 4.734375 -12.609375 C -0.0859375 -12.535156 -3.625 -14.898438 -5.875 -19.703125 C -7.351562 -22.859375 -7.46875 -26.03125 -6.21875 -29.21875 C -4.976562 -32.40625 -2.722656 -34.757812 0.546875 -36.28125 C 3.796875 -37.800781 6.832031 -38.238281 9.65625 -37.59375 C 10.3125 -40.726562 11.644531 -42.765625 13.65625 -43.703125 C 14.488281 -44.097656 15.285156 -44.242188 16.046875 -44.140625 C 16.816406 -44.046875 17.359375 -43.671875 17.671875 -43.015625 C 17.960938 -42.378906 18.15625 -41.550781 18.25 -40.53125 C 17.875 -40.445312 17.125 -40.144531 16 -39.625 C 14.882812 -39.101562 13.75 -38.066406 12.59375 -36.515625 C 14.851562 -35.242188 16.582031 -33.320312 17.78125 -30.75 C 19.375 -27.351562 19.472656 -24.117188 18.078125 -21.046875 C 16.679688 -17.972656 14.363281 -15.679688 11.125 -14.171875 Z M 11.125 -14.171875 " />
            </g>
        </g>
    </g>
    <g fill="#000000" fill-opacity="1">
        <g transform="translate(267.475484, 159.269381)">
            <g />
        </g>
    </g>
    <g fill="#000000" fill-opacity="1">
        <g transform="translate(282.410148, 153.630255)">
            <g>
                <path
                    d="M -1.5625 -28.96875 C -1.707031 -28.925781 -3.710938 -28.171875 -7.578125 -26.703125 C -7.816406 -27.066406 -8.066406 -27.679688 -8.328125 -28.546875 C -8.578125 -29.410156 -8.410156 -30.070312 -7.828125 -30.53125 C -7.253906 -31 -6.175781 -31.460938 -4.59375 -31.921875 L -2.734375 -32.46875 C -3.691406 -35.40625 -4.539062 -37.835938 -5.28125 -39.765625 C -4.664062 -40.085938 -3.957031 -40.363281 -3.15625 -40.59375 C -1.0625 -41.207031 0.226562 -40.679688 0.71875 -39.015625 C 0.90625 -38.378906 1.320312 -36.628906 1.96875 -33.765625 C 7.550781 -35.390625 11.207031 -36.59375 12.9375 -37.375 C 13.226562 -37.050781 13.484375 -36.503906 13.703125 -35.734375 C 13.929688 -34.960938 13.851562 -34.359375 13.46875 -33.921875 C 13.09375 -33.484375 12.285156 -33.054688 11.046875 -32.640625 C 9.804688 -32.234375 7.078125 -31.421875 2.859375 -30.203125 C 4.179688 -25.398438 5.492188 -20.753906 6.796875 -16.265625 C 8.117188 -11.753906 9.378906 -9.023438 10.578125 -8.078125 C 11.773438 -7.140625 13.332031 -6.953125 15.25 -7.515625 C 17.164062 -8.066406 18.582031 -9.203125 19.5 -10.921875 C 20.53125 -10.304688 21.171875 -9.585938 21.421875 -8.765625 C 21.660156 -7.921875 21.296875 -7.050781 20.328125 -6.15625 C 19.359375 -5.257812 18.054688 -4.570312 16.421875 -4.09375 C 12.765625 -3.03125 9.867188 -3.328125 7.734375 -4.984375 C 5.609375 -6.648438 3.9375 -9.578125 2.71875 -13.765625 C 0.5 -21.722656 -0.925781 -26.789062 -1.5625 -28.96875 Z M -1.5625 -28.96875 " />
            </g>
        </g>
    </g>
    <g fill="#000000" fill-opacity="1">
        <g transform="translate(304.078796, 146.976115)">
            <g>
                <path
                    d="M 23.484375 -7.78125 L 20.4375 -26.046875 C 20.0625 -28.054688 19.144531 -29.59375 17.6875 -30.65625 C 16.226562 -31.71875 14.78125 -32.113281 13.34375 -31.84375 C 11.863281 -31.5625 10.28125 -30.828125 8.59375 -29.640625 C 6.90625 -28.453125 5.601562 -27.101562 4.6875 -25.59375 C 5.695312 -19.15625 6.476562 -14.472656 7.03125 -11.546875 C 7.59375 -8.617188 8.375 -5.382812 9.375 -1.84375 C 8.6875 -1.570312 7.9375 -1.359375 7.125 -1.203125 C 5.09375 -0.816406 3.910156 -1.484375 3.578125 -3.203125 C 3.515625 -3.554688 3.1875 -5.539062 2.59375 -9.15625 C 0.925781 -19.925781 -0.582031 -28.863281 -1.9375 -35.96875 C -3.269531 -43.039062 -4.382812 -47.976562 -5.28125 -50.78125 C -4.582031 -51.039062 -3.785156 -51.253906 -2.890625 -51.421875 C -0.867188 -51.804688 0.296875 -51.175781 0.609375 -49.53125 C 0.921875 -47.875 2.023438 -41.242188 3.921875 -29.640625 C 6.617188 -33.023438 9.96875 -35.097656 13.96875 -35.859375 C 20.0625 -37.015625 23.773438 -34.078125 25.109375 -27.046875 L 26.90625 -16 C 27.695312 -11.863281 28.71875 -8.535156 29.96875 -6.015625 C 29.125 -5.492188 28.203125 -5.140625 27.203125 -4.953125 C 26.191406 -4.753906 25.378906 -4.863281 24.765625 -5.28125 C 24.148438 -5.695312 23.722656 -6.53125 23.484375 -7.78125 Z M 23.484375 -7.78125 " />
            </g>
        </g>
    </g>
    <g fill="#000000" fill-opacity="1">
        <g transform="translate(336.441047, 140.806789)">
            <g>
                <path
                    d="M 15.828125 -33.984375 C 19.015625 -34.234375 21.671875 -33.53125 23.796875 -31.875 C 25.921875 -30.226562 27.0625 -28.351562 27.21875 -26.25 C 27.382812 -24.15625 27.195312 -22.488281 26.65625 -21.25 C 26.125 -20.007812 25.367188 -19.003906 24.390625 -18.234375 C 23.410156 -17.472656 21.984375 -16.832031 20.109375 -16.3125 C 17.222656 -15.539062 12.859375 -14.925781 7.015625 -14.46875 C 7.628906 -11.195312 8.816406 -8.664062 10.578125 -6.875 C 12.335938 -5.082031 14.828125 -4.3125 18.046875 -4.5625 C 21.234375 -4.8125 23.40625 -6.1875 24.5625 -8.6875 C 26.4375 -8.09375 27.421875 -7.15625 27.515625 -5.875 C 27.617188 -4.59375 26.660156 -3.460938 24.640625 -2.484375 C 22.628906 -1.503906 20.34375 -0.910156 17.78125 -0.703125 C 13.5 -0.367188 9.878906 -1.453125 6.921875 -3.953125 C 3.972656 -6.453125 2.285156 -10.429688 1.859375 -15.890625 C 1.429688 -21.347656 2.628906 -25.644531 5.453125 -28.78125 C 8.273438 -31.925781 11.734375 -33.660156 15.828125 -33.984375 Z M 15.84375 -30.171875 C 13.101562 -29.960938 10.832031 -28.84375 9.03125 -26.8125 C 7.238281 -24.789062 6.453125 -21.816406 6.671875 -17.890625 C 13.191406 -18.398438 17.5 -19.210938 19.59375 -20.328125 C 20.476562 -20.828125 21.210938 -21.488281 21.796875 -22.3125 C 22.390625 -23.132812 22.632812 -24.203125 22.53125 -25.515625 C 22.425781 -26.816406 21.734375 -27.953125 20.453125 -28.921875 C 19.171875 -29.898438 17.632812 -30.316406 15.84375 -30.171875 Z M 15.84375 -30.171875 " />
            </g>
        </g>
    </g>
    <g fill="#000000" fill-opacity="1">
        <g transform="translate(367.36492, 138.651365)">
            <g />
        </g>
    </g>
    <g fill="#000000" fill-opacity="1">
        <g transform="translate(383.13784, 138.346673)">
            <g>
                <path
                    d="M 13.59375 -2.59375 L 14.71875 -14.703125 L 15.859375 -28.40625 C 16.210938 -32.644531 16.46875 -36.554688 16.625 -40.140625 C 10.132812 -40.679688 5.796875 -40.953125 3.609375 -40.953125 C 3.503906 -41.359375 3.488281 -42 3.5625 -42.875 C 3.632812 -43.738281 3.921875 -44.3125 4.421875 -44.59375 C 4.929688 -44.875 5.734375 -44.992188 6.828125 -44.953125 C 7.929688 -44.910156 10.359375 -44.734375 14.109375 -44.421875 L 22.1875 -43.75 C 29.394531 -43.15625 33.800781 -42.859375 35.40625 -42.859375 C 35.507812 -42.421875 35.523438 -41.785156 35.453125 -40.953125 C 35.378906 -40.117188 35.085938 -39.554688 34.578125 -39.265625 C 34.078125 -38.972656 33.210938 -38.859375 31.984375 -38.921875 C 30.753906 -38.984375 27.578125 -39.226562 22.453125 -39.65625 C 21.597656 -33.144531 21.066406 -28.628906 20.859375 -26.109375 L 19.71875 -12.359375 C 19.207031 -6.179688 19.269531 -1.617188 19.90625 1.328125 C 19.039062 1.609375 17.945312 1.695312 16.625 1.59375 C 15.300781 1.476562 14.429688 1.101562 14.015625 0.46875 C 13.609375 -0.15625 13.46875 -1.175781 13.59375 -2.59375 Z M 13.59375 -2.59375 " />
            </g>
        </g>
    </g>
    <g fill="#000000" fill-opacity="1">
        <g transform="translate(413.543668, 141.037021)">
            <g>
                <path
                    d="M 5.03125 -2.90625 L 7.21875 -14.859375 C 8.332031 -21.316406 9.085938 -26.617188 9.484375 -30.765625 C 10.234375 -30.773438 11.015625 -30.710938 11.828125 -30.578125 C 13.765625 -30.242188 14.585938 -29.234375 14.296875 -27.546875 C 14.285156 -27.453125 14.222656 -27.140625 14.109375 -26.609375 C 13.992188 -26.078125 13.898438 -25.59375 13.828125 -25.15625 C 14.953125 -26.40625 16.367188 -27.453125 18.078125 -28.296875 C 19.785156 -29.148438 21.269531 -29.46875 22.53125 -29.25 C 24.976562 -28.820312 26.050781 -27.726562 25.75 -25.96875 C 25.601562 -25.101562 24.976562 -24.164062 23.875 -23.15625 C 23.019531 -24.195312 21.988281 -24.820312 20.78125 -25.03125 C 19.550781 -25.238281 18.210938 -24.957031 16.765625 -24.1875 C 15.328125 -23.414062 14.035156 -22.285156 12.890625 -20.796875 C 12.597656 -19.253906 12.007812 -15.914062 11.125 -10.78125 C 10.238281 -5.625 9.976562 -1.550781 10.34375 1.4375 C 9.457031 1.65625 8.46875 1.671875 7.375 1.484375 C 6.28125 1.285156 5.554688 0.851562 5.203125 0.1875 C 4.847656 -0.46875 4.789062 -1.5 5.03125 -2.90625 Z M 5.03125 -2.90625 " />
            </g>
        </g>
    </g>
    <g fill="#000000" fill-opacity="1">
        <g transform="translate(433.479451, 144.067862)">
            <g>
                <path
                    d="M 37.09375 -20.59375 L 32.765625 -5.59375 C 31.242188 0.0195312 30.472656 4.519531 30.453125 7.90625 C 29.484375 8.007812 28.625 7.957031 27.875 7.75 C 25.84375 7.195312 25.125 5.816406 25.71875 3.609375 C 21.875 5.265625 18.015625 5.570312 14.140625 4.53125 C 7.878906 2.832031 5.585938 -1.128906 7.265625 -7.359375 L 10.65625 -19.125 C 11.738281 -23.144531 12.265625 -26.582031 12.234375 -29.4375 C 13.210938 -29.539062 14.195312 -29.457031 15.1875 -29.1875 C 16.1875 -28.914062 16.867188 -28.457031 17.234375 -27.8125 C 17.609375 -27.164062 17.628906 -26.226562 17.296875 -25 L 12.265625 -7.953125 C 11.609375 -5.546875 11.691406 -3.539062 12.515625 -1.9375 C 13.335938 -0.34375 14.679688 0.703125 16.546875 1.203125 C 19.734375 2.066406 23.046875 1.648438 26.484375 -0.046875 C 26.953125 -1.953125 27.890625 -5.492188 29.296875 -10.671875 C 30.691406 -15.828125 31.753906 -20.367188 32.484375 -24.296875 C 33.222656 -24.242188 33.988281 -24.109375 34.78125 -23.890625 C 36.769531 -23.359375 37.539062 -22.257812 37.09375 -20.59375 Z M 37.09375 -20.59375 " />
            </g>
        </g>
    </g>
    <g fill="#000000" fill-opacity="1">
        <g transform="translate(466.266767, 153.14485)">
            <g>
                <path
                    d="M 16.1875 -24.078125 C 16.039062 -24.140625 13.984375 -24.738281 10.015625 -25.875 C 10.035156 -26.320312 10.207031 -26.96875 10.53125 -27.8125 C 10.84375 -28.644531 11.367188 -29.078125 12.109375 -29.109375 C 12.859375 -29.140625 14.003906 -28.859375 15.546875 -28.265625 L 17.359375 -27.578125 C 18.359375 -30.503906 19.132812 -32.960938 19.6875 -34.953125 C 20.382812 -34.835938 21.117188 -34.628906 21.890625 -34.328125 C 23.941406 -33.554688 24.660156 -32.359375 24.046875 -30.734375 C 23.816406 -30.117188 23.097656 -28.472656 21.890625 -25.796875 C 27.328125 -23.734375 30.972656 -22.484375 32.828125 -22.046875 C 32.859375 -21.628906 32.726562 -21.046875 32.4375 -20.296875 C 32.15625 -19.546875 31.726562 -19.109375 31.15625 -18.984375 C 30.59375 -18.859375 29.691406 -19.003906 28.453125 -19.421875 C 27.222656 -19.847656 24.5625 -20.835938 20.46875 -22.390625 C 18.625 -17.773438 16.875 -13.28125 15.21875 -8.90625 C 13.550781 -4.507812 12.914062 -1.570312 13.3125 -0.09375 C 13.707031 1.375 14.84375 2.457031 16.71875 3.15625 C 18.570312 3.863281 20.382812 3.8125 22.15625 3 C 22.613281 4.101562 22.691406 5.0625 22.390625 5.875 C 22.078125 6.695312 21.257812 7.175781 19.9375 7.3125 C 18.625 7.445312 17.171875 7.210938 15.578125 6.609375 C 12.023438 5.265625 9.894531 3.285156 9.1875 0.671875 C 8.488281 -1.929688 8.910156 -5.269531 10.453125 -9.34375 C 13.472656 -17.050781 15.382812 -21.960938 16.1875 -24.078125 Z M 16.1875 -24.078125 " />
            </g>
        </g>
    </g>
    <g fill="#000000" fill-opacity="1">
        <g transform="translate(487.581075, 160.858463)">
            <g>
                <path
                    d="M 23.453125 7.90625 L 31.984375 -8.5 C 32.898438 -10.34375 33.09375 -12.125 32.5625 -13.84375 C 32.039062 -15.570312 31.117188 -16.757812 29.796875 -17.40625 C 28.453125 -18.070312 26.75 -18.4375 24.6875 -18.5 C 22.625 -18.570312 20.769531 -18.28125 19.125 -17.625 C 16.0625 -11.863281 13.875 -7.648438 12.5625 -4.984375 C 11.238281 -2.304688 9.921875 0.742188 8.609375 4.171875 C 7.878906 3.960938 7.144531 3.675781 6.40625 3.3125 C 4.5625 2.40625 4.023438 1.164062 4.796875 -0.40625 C 4.953125 -0.71875 5.882812 -2.5 7.59375 -5.75 C 12.726562 -15.363281 16.894531 -23.410156 20.09375 -29.890625 C 23.269531 -36.347656 25.347656 -40.960938 26.328125 -43.734375 C 27.046875 -43.523438 27.8125 -43.21875 28.625 -42.8125 C 30.46875 -41.90625 31.019531 -40.703125 30.28125 -39.203125 C 29.539062 -37.691406 26.429688 -31.734375 20.953125 -21.328125 C 25.160156 -22.410156 29.085938 -22.050781 32.734375 -20.25 C 38.296875 -17.507812 39.492188 -12.925781 36.328125 -6.5 L 31.125 3.421875 C 29.257812 7.191406 28.066406 10.457031 27.546875 13.21875 C 26.566406 13.132812 25.617188 12.867188 24.703125 12.421875 C 23.785156 11.960938 23.207031 11.378906 22.96875 10.671875 C 22.726562 9.960938 22.890625 9.039062 23.453125 7.90625 Z M 23.453125 7.90625 " />
            </g>
        </g>
    </g>
    <g fill="#000000" fill-opacity="1">
        <g transform="translate(517.321621, 175.875934)">
            <g />
        </g>
    </g>
    <g fill="#000000" fill-opacity="1">
        <g transform="translate(531.193764, 184.252911)">
            <g>
                <path
                    d="M 6.109375 -0.359375 L 13.0625 -10.34375 C 16.726562 -15.769531 19.585938 -20.296875 21.640625 -23.921875 C 22.328125 -23.617188 23.015625 -23.238281 23.703125 -22.78125 C 25.472656 -21.570312 25.878906 -20.253906 24.921875 -18.828125 C 24.773438 -18.628906 24.226562 -17.898438 23.28125 -16.640625 C 20.3125 -12.722656 17.445312 -8.722656 14.6875 -4.640625 C 11.914062 -0.546875 10.085938 2.941406 9.203125 5.828125 C 8.304688 5.648438 7.398438 5.25 6.484375 4.625 C 5.535156 3.976562 5.035156 3.28125 4.984375 2.53125 C 4.941406 1.78125 5.316406 0.816406 6.109375 -0.359375 Z M 30.984375 -26.71875 C 30.390625 -25.851562 29.59375 -25.332031 28.59375 -25.15625 C 27.601562 -24.976562 26.71875 -25.148438 25.9375 -25.671875 C 25.15625 -26.203125 24.671875 -26.9375 24.484375 -27.875 C 24.304688 -28.820312 24.519531 -29.742188 25.125 -30.640625 C 25.71875 -31.503906 26.515625 -32.023438 27.515625 -32.203125 C 28.515625 -32.390625 29.398438 -32.21875 30.171875 -31.6875 C 30.953125 -31.164062 31.425781 -30.414062 31.59375 -29.4375 C 31.757812 -28.46875 31.554688 -27.5625 30.984375 -26.71875 Z M 30.984375 -26.71875 " />
            </g>
        </g>
    </g>
    <g fill="#000000" fill-opacity="1">
        <g transform="translate(542.510454, 191.312229)">
            <g>
                <path
                    d="M 21.9375 13.40625 L 33.421875 -0.234375 C 35.015625 -2.222656 35.71875 -4.113281 35.53125 -5.90625 C 35.351562 -7.707031 34.5 -9.222656 32.96875 -10.453125 C 30.550781 -12.398438 27.367188 -13.328125 23.421875 -13.234375 C 19.597656 -8.335938 16.546875 -4.46875 14.265625 -1.625 C 11.984375 1.21875 9.972656 3.9375 8.234375 6.53125 C 7.578125 6.1875 6.929688 5.753906 6.296875 5.234375 C 4.679688 3.941406 4.425781 2.613281 5.53125 1.25 C 5.632812 1.113281 6.726562 -0.15625 8.8125 -2.5625 C 10.894531 -4.976562 12.925781 -7.421875 14.90625 -9.890625 C 19.613281 -15.742188 22.316406 -19.800781 23.015625 -22.0625 C 23.941406 -21.769531 24.695312 -21.390625 25.28125 -20.921875 C 26.914062 -19.609375 27.019531 -18.0625 25.59375 -16.28125 C 27.3125 -16.25 29.253906 -15.859375 31.421875 -15.109375 C 33.597656 -14.367188 35.625 -13.25 37.5 -11.75 C 39.34375 -10.269531 40.453125 -8.394531 40.828125 -6.125 C 41.203125 -3.851562 40.328125 -1.394531 38.203125 1.25 L 30.375 10.671875 C 27.738281 13.953125 25.878906 16.894531 24.796875 19.5 C 23.859375 19.195312 22.988281 18.722656 22.1875 18.078125 C 21.382812 17.429688 20.941406 16.738281 20.859375 16 C 20.773438 15.257812 21.132812 14.394531 21.9375 13.40625 Z M 21.9375 13.40625 " />
            </g>
        </g>
    </g>
    <g fill="#000000" fill-opacity="1">
        <g transform="translate(569.00843, 213.035391)">
            <g />
        </g>
    </g>
    <g fill="#000000" fill-opacity="1">
        <g transform="translate(580.64612, 223.775249)">
            <g>
                <path
                    d="M 6.171875 0.984375 L 14.828125 -6.546875 L 25.390625 -16.046875 C 30.191406 -20.359375 34.035156 -24.035156 36.921875 -27.078125 C 37.546875 -26.578125 38.222656 -25.921875 38.953125 -25.109375 C 40.453125 -23.441406 40.554688 -22.03125 39.265625 -20.875 C 39.054688 -20.6875 38.34375 -20.109375 37.125 -19.140625 C 33.394531 -16.148438 30.164062 -13.429688 27.4375 -10.984375 L 22.84375 -6.859375 C 15.757812 -0.484375 11.570312 3.492188 10.28125 5.078125 C 11.488281 6.554688 12.46875 7.71875 13.21875 8.5625 C 17.988281 13.863281 21.457031 16.925781 23.625 17.75 C 23.132812 18.65625 22.539062 19.421875 21.84375 20.046875 C 21.132812 20.679688 20.503906 20.953125 19.953125 20.859375 C 18.910156 20.742188 16.429688 18.503906 12.515625 14.140625 C 8.597656 9.785156 6.226562 7.097656 5.40625 6.078125 C 4.582031 5.054688 4.242188 4.179688 4.390625 3.453125 C 4.546875 2.734375 5.140625 1.910156 6.171875 0.984375 Z M 6.171875 0.984375 " />
            </g>
        </g>
    </g>
    <g fill="#000000" fill-opacity="1">
        <g transform="translate(599.421354, 244.269993)">
            <g>
                <path
                    d="M 32.21875 17.421875 C 28.144531 20.367188 24.078125 21.609375 20.015625 21.140625 C 15.953125 20.679688 12.613281 18.644531 10 15.03125 C 7.394531 11.40625 6.515625 7.59375 7.359375 3.59375 C 8.203125 -0.394531 10.660156 -3.863281 14.734375 -6.8125 C 18.816406 -9.75 22.898438 -10.992188 26.984375 -10.546875 C 31.066406 -10.109375 34.410156 -8.078125 37.015625 -4.453125 C 39.628906 -0.835938 40.503906 2.972656 39.640625 6.984375 C 38.773438 11.003906 36.300781 14.484375 32.21875 17.421875 Z M 13.109375 12.796875 C 14.972656 15.367188 17.300781 16.75 20.09375 16.9375 C 22.894531 17.132812 25.816406 16.132812 28.859375 13.9375 C 31.910156 11.738281 33.96875 9.125 35.03125 6.09375 C 36.09375 3.070312 35.703125 0.28125 33.859375 -2.28125 C 32.003906 -4.851562 29.679688 -6.21875 26.890625 -6.375 C 24.109375 -6.53125 21.191406 -5.507812 18.140625 -3.3125 C 15.085938 -1.113281 13.019531 1.46875 11.9375 4.4375 C 10.851562 7.414062 11.242188 10.203125 13.109375 12.796875 Z M 13.109375 12.796875 " />
            </g>
        </g>
    </g>
    <g fill="#000000" fill-opacity="1">
        <g transform="translate(619.443129, 272.166514)">
            <g>
                <path
                    d="M 40.875 5.890625 C 41.707031 7.347656 41.363281 8.503906 39.84375 9.359375 C 37.132812 10.898438 32.523438 12.21875 26.015625 13.3125 C 19.515625 14.40625 14.4375 14.613281 10.78125 13.9375 C 9.425781 13.695312 8.441406 13.410156 7.828125 13.078125 C 7.222656 12.742188 6.75 12.28125 6.40625 11.6875 C 6.050781 11.0625 5.757812 10.414062 5.53125 9.75 C 9.601562 6.226562 13.929688 1.769531 18.515625 -3.625 C 23.109375 -9.03125 25.726562 -12.890625 26.375 -15.203125 C 28.125 -14.628906 29.289062 -13.835938 29.875 -12.828125 C 30.425781 -11.835938 30.171875 -10.65625 29.109375 -9.28125 C 27.679688 -7.363281 25.09375 -4.265625 21.34375 0.015625 C 17.601562 4.304688 14.351562 7.769531 11.59375 10.40625 C 14.625 10.820312 18.898438 10.554688 24.421875 9.609375 C 29.941406 8.671875 34.378906 7.253906 37.734375 5.359375 C 38.367188 4.992188 38.953125 4.578125 39.484375 4.109375 C 40.023438 4.617188 40.488281 5.210938 40.875 5.890625 Z M 40.875 5.890625 " />
            </g>
        </g>
    </g>
    <g fill="#000000" fill-opacity="1">
        <g transform="translate(633.651499, 296.915169)">
            <g>
                <path
                    d="M 37.296875 3.71875 C 38.578125 6.644531 38.789062 9.382812 37.9375 11.9375 C 37.09375 14.488281 35.707031 16.1875 33.78125 17.03125 C 31.851562 17.875 30.210938 18.242188 28.859375 18.140625 C 27.503906 18.046875 26.304688 17.664062 25.265625 17 C 24.222656 16.332031 23.144531 15.195312 22.03125 13.59375 C 20.363281 11.113281 18.347656 7.195312 15.984375 1.84375 C 13.097656 3.5 11.097656 5.457031 9.984375 7.71875 C 8.878906 9.976562 8.976562 12.585938 10.28125 15.546875 C 11.570312 18.472656 13.578125 20.066406 16.296875 20.328125 C 16.347656 22.285156 15.789062 23.519531 14.625 24.03125 C 13.4375 24.550781 12.050781 24.019531 10.46875 22.4375 C 8.882812 20.863281 7.578125 18.898438 6.546875 16.546875 C 4.816406 12.617188 4.640625 8.847656 6.015625 5.234375 C 7.398438 1.617188 10.601562 -1.289062 15.625 -3.5 C 20.632812 -5.695312 25.082031 -5.984375 28.96875 -4.359375 C 32.863281 -2.734375 35.640625 -0.0390625 37.296875 3.71875 Z M 33.734375 5.015625 C 32.617188 2.492188 30.804688 0.722656 28.296875 -0.296875 C 25.796875 -1.328125 22.722656 -1.097656 19.078125 0.390625 C 21.710938 6.367188 23.90625 10.164062 25.65625 11.78125 C 26.414062 12.4375 27.28125 12.910156 28.25 13.203125 C 29.21875 13.503906 30.3125 13.390625 31.53125 12.859375 C 32.71875 12.328125 33.5625 11.296875 34.0625 9.765625 C 34.5625 8.234375 34.453125 6.648438 33.734375 5.015625 Z M 33.734375 5.015625 " />
            </g>
        </g>
    </g>
</svg>