<svg xmlns="http://www.w3.org/2000/svg" xmlns:xlink="http://www.w3.org/1999/xlink" width="500" zoomAndPan="magnify" viewBox="0 0 375 374.999991" height="500" preserveAspectRatio="xMidYMid meet" version="1.0"><defs><g/><clipPath id="a4a83461b8"><path d="M 65 64.246094 L 319 64.246094 L 319 265 L 65 265 Z M 65 64.246094 " clip-rule="nonzero"/></clipPath><clipPath id="3ce5c80294"><path d="M 158.78125 361.792969 L 12.605469 156.472656 L 227.703125 3.335938 L 373.878906 208.65625 Z M 158.78125 361.792969 " clip-rule="nonzero"/></clipPath><clipPath id="95d549eefb"><path d="M 87.695312 261.90625 C 51.648438 209.019531 60.84375 137.53125 109.105469 95.484375 C 157.371094 53.445312 229.449219 54.140625 276.886719 97.101562 C 324.332031 140.0625 332.15625 211.722656 295.09375 263.902344 C 294.28125 265.042969 292.707031 265.3125 291.566406 264.5 C 290.433594 263.695312 290.164062 262.113281 290.96875 260.980469 C 326.546875 210.878906 319.042969 142.097656 273.496094 100.847656 C 227.953125 59.609375 158.753906 58.9375 112.425781 99.300781 C 66.097656 139.65625 57.261719 208.292969 91.871094 259.0625 C 92.382812 259.808594 92.449219 260.765625 92.058594 261.582031 C 91.667969 262.394531 90.875 262.9375 89.972656 263.003906 C 89.074219 263.070312 88.203125 262.652344 87.695312 261.90625 " clip-rule="nonzero"/></clipPath><clipPath id="2f03288e1c"><path d="M 129.378906 75.199219 L 253 75.199219 L 253 216.949219 L 129.378906 216.949219 Z M 129.378906 75.199219 " clip-rule="nonzero"/></clipPath><clipPath id="ceddeb1744"><path d="M 74.164062 214 L 301.292969 214 L 301.292969 312.082031 L 74.164062 312.082031 Z M 74.164062 214 " clip-rule="nonzero"/></clipPath></defs><g clip-path="url(#a4a83461b8)"><g clip-path="url(#3ce5c80294)"><g clip-path="url(#95d549eefb)"><path fill="#000000" d="M 162.441406 366.945312 L 15.898438 161.101562 L 221.734375 14.5625 L 368.277344 220.398438 Z M 162.441406 366.945312 " fill-opacity="1" fill-rule="nonzero"/></g></g></g><g clip-path="url(#2f03288e1c)"><path fill="#000000" d="M 250.898438 116.378906 L 210.710938 116.378906 L 210.710938 76.972656 C 210.710938 75.980469 209.933594 75.199219 208.941406 75.199219 L 173.425781 75.199219 C 172.433594 75.199219 171.65625 75.980469 171.65625 76.972656 L 171.65625 116.378906 L 131.46875 116.378906 C 130.476562 116.378906 129.699219 117.160156 129.699219 118.152344 L 129.699219 153.765625 C 129.699219 154.757812 130.476562 155.539062 131.46875 155.539062 L 171.65625 155.539062 L 171.65625 243.710938 C 171.65625 244.707031 172.433594 245.484375 173.425781 245.484375 L 208.941406 245.484375 C 209.933594 245.484375 210.710938 244.707031 210.710938 243.710938 L 210.710938 155.5 L 250.898438 155.5 C 251.886719 155.5 252.667969 154.722656 252.667969 153.726562 L 252.667969 118.152344 C 252.667969 117.160156 251.886719 116.378906 250.898438 116.378906 Z M 249.128906 151.953125 L 208.941406 151.953125 C 207.949219 151.953125 207.171875 152.734375 207.171875 153.726562 L 207.171875 241.902344 L 175.191406 241.902344 L 175.191406 153.726562 C 175.191406 152.734375 174.414062 151.953125 173.425781 151.953125 L 133.238281 151.953125 L 133.238281 119.890625 L 173.425781 119.890625 C 174.414062 119.890625 175.191406 119.109375 175.191406 118.117188 L 175.191406 78.746094 L 207.171875 78.746094 L 207.171875 118.152344 C 207.171875 119.144531 207.949219 119.925781 208.941406 119.925781 L 249.128906 119.925781 Z M 249.128906 151.953125 " fill-opacity="1" fill-rule="nonzero"/></g><g fill="#000000" fill-opacity="1"><g transform="translate(56.250853, 181.343714)"><g><path d="M 1.609375 -10.59375 C 1.410156 -8.925781 1.023438 -7.46875 0.453125 -6.21875 C -0.109375 -4.976562 -0.769531 -3.960938 -1.53125 -3.171875 C -2.300781 -2.390625 -3.113281 -1.816406 -3.96875 -1.453125 L -6.859375 -4.4375 L -6.8125 -4.84375 C -5.644531 -5.445312 -4.675781 -6.265625 -3.90625 -7.296875 C -3.132812 -8.328125 -2.660156 -9.585938 -2.484375 -11.078125 C -2.335938 -12.335938 -2.5 -13.328125 -2.96875 -14.046875 C -3.4375 -14.765625 -4.140625 -15.175781 -5.078125 -15.28125 C -5.648438 -15.351562 -6.132812 -15.304688 -6.53125 -15.140625 C -6.9375 -14.972656 -7.304688 -14.664062 -7.640625 -14.21875 C -7.972656 -13.769531 -8.285156 -13.148438 -8.578125 -12.359375 L -9.65625 -9.34375 C -10.394531 -7.25 -11.394531 -5.738281 -12.65625 -4.8125 C -13.925781 -3.894531 -15.476562 -3.539062 -17.3125 -3.75 C -18.664062 -3.914062 -19.816406 -4.394531 -20.765625 -5.1875 C -21.722656 -5.988281 -22.40625 -7.070312 -22.8125 -8.4375 C -23.226562 -9.8125 -23.332031 -11.398438 -23.125 -13.203125 C -22.90625 -15.046875 -22.472656 -16.597656 -21.828125 -17.859375 C -21.191406 -19.117188 -20.316406 -20.148438 -19.203125 -20.953125 L -16.25 -18.21875 L -16.3125 -17.796875 C -17.09375 -17.203125 -17.710938 -16.492188 -18.171875 -15.671875 C -18.640625 -14.847656 -18.941406 -13.867188 -19.078125 -12.734375 C -19.234375 -11.429688 -19.117188 -10.410156 -18.734375 -9.671875 C -18.359375 -8.929688 -17.765625 -8.515625 -16.953125 -8.421875 C -16.203125 -8.328125 -15.570312 -8.492188 -15.0625 -8.921875 C -14.550781 -9.347656 -14.101562 -10.132812 -13.71875 -11.28125 L -12.6875 -14.34375 C -11.925781 -16.625 -10.894531 -18.21875 -9.59375 -19.125 C -8.289062 -20.03125 -6.691406 -20.375 -4.796875 -20.15625 C -3.296875 -19.96875 -2.023438 -19.488281 -0.984375 -18.71875 C 0.0546875 -17.945312 0.800781 -16.875 1.25 -15.5 C 1.707031 -14.125 1.828125 -12.488281 1.609375 -10.59375 Z M 1.609375 -10.59375 "/></g></g></g><g fill="#000000" fill-opacity="1"><g transform="translate(58.33971, 162.323888)"><g><path d="M 7.8125 -0.59375 L -16.90625 -7.3125 L -15.703125 -11.734375 L -13.40625 -11.109375 L -13.25 -11.4375 C -14.007812 -12.1875 -14.492188 -13.0625 -14.703125 -14.0625 C -14.910156 -15.0625 -14.859375 -16.144531 -14.546875 -17.3125 C -14.160156 -18.726562 -13.488281 -19.875 -12.53125 -20.75 C -11.570312 -21.632812 -10.332031 -22.1875 -8.8125 -22.40625 C -7.289062 -22.625 -5.519531 -22.457031 -3.5 -21.90625 C -1.488281 -21.351562 0.113281 -20.578125 1.3125 -19.578125 C 2.507812 -18.585938 3.289062 -17.445312 3.65625 -16.15625 C 4.03125 -14.875 4.019531 -13.507812 3.625 -12.0625 C 3.332031 -10.96875 2.894531 -10.070312 2.3125 -9.375 C 1.726562 -8.675781 0.972656 -8.160156 0.046875 -7.828125 L 0.015625 -7.46875 L 9.015625 -5.015625 Z M -0.4375 -11.859375 C -0.0703125 -13.171875 -0.226562 -14.28125 -0.90625 -15.1875 C -1.59375 -16.101562 -2.867188 -16.816406 -4.734375 -17.328125 C -6.585938 -17.828125 -8.039062 -17.859375 -9.09375 -17.421875 C -10.144531 -16.984375 -10.851562 -16.109375 -11.21875 -14.796875 C -11.550781 -13.554688 -11.367188 -12.453125 -10.671875 -11.484375 C -9.972656 -10.515625 -8.722656 -9.785156 -6.921875 -9.296875 C -5.117188 -8.804688 -3.671875 -8.800781 -2.578125 -9.28125 C -1.484375 -9.757812 -0.769531 -10.617188 -0.4375 -11.859375 Z M -0.4375 -11.859375 "/></g></g></g><g fill="#000000" fill-opacity="1"><g transform="translate(63.606725, 142.78572)"><g><path d="M -0.234375 -19.734375 L -4.890625 -9 C -3.390625 -8.488281 -2.148438 -8.441406 -1.171875 -8.859375 C -0.203125 -9.273438 0.546875 -10.097656 1.078125 -11.328125 C 1.492188 -12.285156 1.644531 -13.140625 1.53125 -13.890625 C 1.425781 -14.640625 1.09375 -15.359375 0.53125 -16.046875 L 0.671875 -16.375 L 3.671875 -18.375 C 4.609375 -17.320312 5.203125 -16.085938 5.453125 -14.671875 C 5.703125 -13.253906 5.425781 -11.625 4.625 -9.78125 C 3.875 -8.050781 2.898438 -6.695312 1.703125 -5.71875 C 0.503906 -4.75 -0.890625 -4.203125 -2.484375 -4.078125 C -4.085938 -3.960938 -5.828125 -4.3125 -7.703125 -5.125 C -9.597656 -5.957031 -11.039062 -7.015625 -12.03125 -8.296875 C -13.03125 -9.578125 -13.582031 -10.96875 -13.6875 -12.46875 C -13.789062 -13.976562 -13.515625 -15.492188 -12.859375 -17.015625 C -11.828125 -19.378906 -10.410156 -20.914062 -8.609375 -21.625 C -6.816406 -22.34375 -4.707031 -22.175781 -2.28125 -21.125 C -1.40625 -20.75 -0.734375 -20.425781 -0.265625 -20.15625 Z M -4.515625 -17.328125 C -5.804688 -17.835938 -6.859375 -17.941406 -7.671875 -17.640625 C -8.492188 -17.335938 -9.140625 -16.65625 -9.609375 -15.59375 C -10.523438 -13.476562 -9.847656 -11.703125 -7.578125 -10.265625 Z M -4.515625 -17.328125 "/></g></g></g><g fill="#000000" fill-opacity="1"><g transform="translate(70.829598, 125.94763)"><g><path d="M 3.984375 -5.90625 C 3.378906 -4.90625 2.671875 -4.144531 1.859375 -3.625 C 1.046875 -3.113281 0.164062 -2.875 -0.78125 -2.90625 C -1.738281 -2.945312 -2.71875 -3.269531 -3.71875 -3.875 C -4.644531 -4.4375 -5.300781 -5.101562 -5.6875 -5.875 C -6.070312 -6.65625 -6.210938 -7.582031 -6.109375 -8.65625 C -6.003906 -9.726562 -5.65625 -10.992188 -5.0625 -12.453125 C -4.644531 -13.484375 -4.375 -14.296875 -4.25 -14.890625 C -4.132812 -15.484375 -4.140625 -15.929688 -4.265625 -16.234375 C -4.398438 -16.546875 -4.640625 -16.8125 -4.984375 -17.03125 C -5.484375 -17.332031 -5.96875 -17.382812 -6.4375 -17.1875 C -6.914062 -17 -7.398438 -16.5 -7.890625 -15.6875 C -8.421875 -14.820312 -8.726562 -13.882812 -8.8125 -12.875 C -8.90625 -11.863281 -8.816406 -10.875 -8.546875 -9.90625 L -8.71875 -9.625 L -12.171875 -9.484375 C -12.554688 -10.804688 -12.648438 -12.1875 -12.453125 -13.625 C -12.253906 -15.0625 -11.75 -16.457031 -10.9375 -17.8125 C -9.6875 -19.875 -8.34375 -21.101562 -6.90625 -21.5 C -5.46875 -21.894531 -3.941406 -21.601562 -2.328125 -20.625 L 4.4375 -16.515625 C 5.144531 -16.085938 5.679688 -16.175781 6.046875 -16.78125 C 6.191406 -17.019531 6.285156 -17.273438 6.328125 -17.546875 L 6.515625 -17.71875 L 9.40625 -16.359375 C 9.425781 -16.046875 9.363281 -15.671875 9.21875 -15.234375 C 9.070312 -14.796875 8.859375 -14.347656 8.578125 -13.890625 C 8.015625 -12.960938 7.390625 -12.34375 6.703125 -12.03125 C 6.023438 -11.71875 5.238281 -11.679688 4.34375 -11.921875 L 4.140625 -11.65625 C 5.296875 -9.90625 5.242188 -7.988281 3.984375 -5.90625 Z M 1.8125 -8.921875 C 2.363281 -9.828125 2.5 -10.734375 2.21875 -11.640625 C 1.9375 -12.546875 1.253906 -13.328125 0.171875 -13.984375 L -1.40625 -14.9375 L -1.625 -14.71875 C -1.582031 -14.375 -1.613281 -13.96875 -1.71875 -13.5 C -1.820312 -13.039062 -2.023438 -12.421875 -2.328125 -11.640625 C -2.710938 -10.691406 -2.84375 -9.925781 -2.71875 -9.34375 C -2.601562 -8.769531 -2.226562 -8.296875 -1.59375 -7.921875 C -0.925781 -7.515625 -0.300781 -7.398438 0.28125 -7.578125 C 0.875 -7.765625 1.382812 -8.210938 1.8125 -8.921875 Z M 1.8125 -8.921875 "/></g></g></g><g fill="#000000" fill-opacity="1"><g transform="translate(79.999034, 110.718147)"><g><path d="M 1.640625 -2.046875 L -18.3125 -18.03125 L -15.453125 -21.609375 L -4.375 -12.734375 L -4.09375 -13.078125 L -6.15625 -21.484375 L -3.25 -25.125 L -2.953125 -24.890625 L -0.578125 -15.046875 L 11.109375 -14.5 L 11.421875 -14.25 L 8.40625 -10.484375 L -1.21875 -10.78125 L -1.5 -10.4375 L 4.5 -5.625 Z M 1.640625 -2.046875 "/></g></g></g><g fill="#000000" fill-opacity="1"><g transform="translate(90.872112, 97.394001)"><g><path d="M -11.203125 -17.78125 C -11.773438 -17.1875 -12.421875 -16.878906 -13.140625 -16.859375 C -13.859375 -16.835938 -14.503906 -17.101562 -15.078125 -17.65625 C -15.628906 -18.195312 -15.90625 -18.828125 -15.90625 -19.546875 C -15.90625 -20.273438 -15.617188 -20.9375 -15.046875 -21.53125 C -14.660156 -21.925781 -14.234375 -22.191406 -13.765625 -22.328125 C -13.296875 -22.472656 -12.832031 -22.488281 -12.375 -22.375 C -11.914062 -22.269531 -11.503906 -22.035156 -11.140625 -21.671875 C -10.773438 -21.316406 -10.523438 -20.910156 -10.390625 -20.453125 C -10.265625 -19.992188 -10.269531 -19.53125 -10.40625 -19.0625 C -10.550781 -18.601562 -10.816406 -18.175781 -11.203125 -17.78125 Z M 1.828125 -1.875 L -11.21875 -14.609375 L -8.015625 -17.890625 L 5.03125 -5.15625 Z M 1.828125 -1.875 "/></g></g></g><g fill="#000000" fill-opacity="1"><g transform="translate(96.626875, 90.953441)"><g><path d="M 2.03125 -1.671875 L -9.5625 -15.734375 L -6.171875 -18.53125 L -4.484375 -16.46875 L -4.15625 -16.625 C -4.59375 -18.945312 -3.832031 -20.914062 -1.875 -22.53125 C -0.25 -23.863281 1.304688 -24.40625 2.796875 -24.15625 C 4.296875 -23.90625 5.738281 -22.9375 7.125 -21.25 L 14.671875 -12.09375 L 11.140625 -9.1875 L 3.953125 -17.90625 C 3.179688 -18.832031 2.4375 -19.347656 1.71875 -19.453125 C 1.007812 -19.566406 0.242188 -19.28125 -0.578125 -18.59375 C -1.597656 -17.757812 -2.117188 -16.78125 -2.140625 -15.65625 C -2.171875 -14.53125 -1.601562 -13.265625 -0.4375 -11.859375 L 5.5625 -4.578125 Z M 2.03125 -1.671875 "/></g></g></g><g fill="#000000" fill-opacity="1"><g transform="translate(111.890409, 78.332684)"><g><path d="M 12.109375 1.65625 C 9.535156 3.226562 7.40625 4.015625 5.71875 4.015625 C 4.039062 4.015625 2.789062 3.34375 1.96875 2 C 1.46875 1.1875 1.320312 0.359375 1.53125 -0.484375 C 1.738281 -1.335938 2.269531 -2.15625 3.125 -2.9375 L 2.953125 -3.234375 C 2.234375 -3.222656 1.640625 -3.34375 1.171875 -3.59375 C 0.703125 -3.84375 0.3125 -4.226562 0 -4.75 C -0.769531 -6 -0.476562 -7.335938 0.875 -8.765625 L 0.703125 -9.0625 C -0.421875 -9.03125 -1.414062 -9.238281 -2.28125 -9.6875 C -3.144531 -10.132812 -3.882812 -10.859375 -4.5 -11.859375 C -5.132812 -12.890625 -5.453125 -13.941406 -5.453125 -15.015625 C -5.460938 -16.097656 -5.140625 -17.140625 -4.484375 -18.140625 C -3.835938 -19.140625 -2.878906 -20.03125 -1.609375 -20.8125 C -0.304688 -21.601562 0.863281 -22.007812 1.90625 -22.03125 C 1.957031 -23.03125 1.75 -24.003906 1.28125 -24.953125 L 1.46875 -25.328125 L 4.6875 -26.34375 C 5.050781 -25.550781 5.210938 -24.796875 5.171875 -24.078125 C 5.128906 -23.367188 4.867188 -22.59375 4.390625 -21.75 L 4.578125 -21.4375 C 5.910156 -21.195312 7 -20.390625 7.84375 -19.015625 C 8.4375 -18.054688 8.726562 -17.046875 8.71875 -15.984375 C 8.707031 -14.929688 8.375 -13.90625 7.71875 -12.90625 C 7.070312 -11.90625 6.117188 -11.019531 4.859375 -10.25 L 4.28125 -9.90625 C 3.894531 -9.6875 3.628906 -9.53125 3.484375 -9.4375 C 3.117188 -9.21875 2.890625 -8.953125 2.796875 -8.640625 C 2.710938 -8.328125 2.765625 -8.019531 2.953125 -7.71875 C 3.148438 -7.382812 3.4375 -7.203125 3.8125 -7.171875 C 4.195312 -7.148438 4.644531 -7.285156 5.15625 -7.578125 L 8.734375 -9.59375 C 12.234375 -11.601562 14.859375 -11.175781 16.609375 -8.3125 C 17.222656 -7.3125 17.507812 -6.265625 17.46875 -5.171875 C 17.4375 -4.078125 16.992188 -2.945312 16.140625 -1.78125 C 15.285156 -0.613281 13.941406 0.53125 12.109375 1.65625 Z M 3.1875 -12.96875 C 3.945312 -13.425781 4.398438 -14.003906 4.546875 -14.703125 C 4.703125 -15.410156 4.53125 -16.175781 4.03125 -17 C 3.53125 -17.820312 2.929688 -18.316406 2.234375 -18.484375 C 1.546875 -18.660156 0.820312 -18.519531 0.0625 -18.0625 C -0.6875 -17.59375 -1.128906 -17.015625 -1.265625 -16.328125 C -1.410156 -15.648438 -1.234375 -14.898438 -0.734375 -14.078125 C -0.222656 -13.242188 0.367188 -12.734375 1.046875 -12.546875 C 1.722656 -12.359375 2.4375 -12.5 3.1875 -12.96875 Z M 10.375 -1.171875 C 11.707031 -1.984375 12.5625 -2.765625 12.9375 -3.515625 C 13.3125 -4.265625 13.316406 -4.941406 12.953125 -5.546875 C 12.648438 -6.035156 12.269531 -6.296875 11.8125 -6.328125 C 11.363281 -6.367188 10.796875 -6.195312 10.109375 -5.8125 L 6.953125 -4.0625 C 6.859375 -4 6.757812 -3.945312 6.65625 -3.90625 C 6.5625 -3.863281 6.46875 -3.816406 6.375 -3.765625 C 5.71875 -3.359375 5.304688 -2.910156 5.140625 -2.421875 C 4.972656 -1.929688 5.039062 -1.4375 5.34375 -0.9375 C 5.75 -0.28125 6.375 0.03125 7.21875 0 C 8.070312 -0.0195312 9.125 -0.410156 10.375 -1.171875 Z M 10.375 -1.171875 "/></g></g></g><g fill="#000000" fill-opacity="1"><g transform="translate(127.26265, 69.158084)"><g/></g></g><g fill="#000000" fill-opacity="1"><g transform="translate(133.590761, 65.879799)"><g><path d="M 10.078125 -8.6875 L 12.421875 -5.984375 C 12.128906 -5.421875 11.675781 -4.894531 11.0625 -4.40625 C 10.445312 -3.925781 9.695312 -3.507812 8.8125 -3.15625 C 6.976562 -2.414062 5.390625 -2.351562 4.046875 -2.96875 C 2.703125 -3.59375 1.648438 -4.859375 0.890625 -6.765625 L -2.3125 -14.796875 L -4.890625 -13.765625 L -6.25 -17.15625 L -3.671875 -18.1875 L -4.984375 -21.5 L -1 -23.859375 L 0.578125 -19.875 L 5.375 -21.796875 L 6.734375 -18.40625 L 1.9375 -16.484375 L 5.015625 -8.75 C 5.347656 -7.914062 5.765625 -7.375 6.265625 -7.125 C 6.773438 -6.882812 7.363281 -6.898438 8.03125 -7.171875 C 8.78125 -7.472656 9.351562 -7.9375 9.75 -8.5625 Z M 10.078125 -8.6875 "/></g></g></g><g fill="#000000" fill-opacity="1"><g transform="translate(145.376649, 60.851523)"><g><path d="M 2.546875 -0.671875 L -3.9375 -25.40625 L 0.484375 -26.5625 L 2.953125 -17.171875 L 3.3125 -17.1875 C 3.664062 -18.195312 4.207031 -19.046875 4.9375 -19.734375 C 5.675781 -20.429688 6.648438 -20.941406 7.859375 -21.265625 C 11.742188 -22.273438 14.265625 -20.570312 15.421875 -16.15625 L 18.390625 -4.8125 L 13.96875 -3.65625 L 11.140625 -14.453125 C 10.828125 -15.660156 10.351562 -16.472656 9.71875 -16.890625 C 9.09375 -17.304688 8.273438 -17.378906 7.265625 -17.109375 C 6.023438 -16.785156 5.148438 -16.117188 4.640625 -15.109375 C 4.140625 -14.097656 4.117188 -12.710938 4.578125 -10.953125 L 6.96875 -1.828125 Z M 2.546875 -0.671875 "/></g></g></g><g fill="#000000" fill-opacity="1"><g transform="translate(164.492144, 55.783059)"><g><path d="M 17 -10.0625 L 5.34375 -8.75 C 5.65625 -7.1875 6.234375 -6.085938 7.078125 -5.453125 C 7.921875 -4.828125 9.007812 -4.585938 10.34375 -4.734375 C 11.382812 -4.859375 12.203125 -5.148438 12.796875 -5.609375 C 13.398438 -6.078125 13.851562 -6.726562 14.15625 -7.5625 L 14.515625 -7.609375 L 17.734375 -6 C 17.296875 -4.65625 16.523438 -3.519531 15.421875 -2.59375 C 14.316406 -1.675781 12.769531 -1.101562 10.78125 -0.875 C 8.90625 -0.664062 7.242188 -0.835938 5.796875 -1.390625 C 4.359375 -1.941406 3.1875 -2.878906 2.28125 -4.203125 C 1.382812 -5.535156 0.820312 -7.210938 0.59375 -9.234375 C 0.363281 -11.296875 0.554688 -13.078125 1.171875 -14.578125 C 1.785156 -16.078125 2.71875 -17.25 3.96875 -18.09375 C 5.21875 -18.9375 6.671875 -19.453125 8.328125 -19.640625 C 10.878906 -19.929688 12.910156 -19.476562 14.421875 -18.28125 C 15.941406 -17.082031 16.851562 -15.171875 17.15625 -12.546875 C 17.257812 -11.585938 17.3125 -10.84375 17.3125 -10.3125 Z M 12.75 -12.5625 C 12.539062 -13.9375 12.101562 -14.90625 11.4375 -15.46875 C 10.769531 -16.03125 9.863281 -16.25 8.71875 -16.125 C 6.414062 -15.863281 5.207031 -14.382812 5.09375 -11.6875 Z M 12.75 -12.5625 "/></g></g></g><g fill="#000000" fill-opacity="1"><g transform="translate(183.124739, 53.895604)"><g/></g></g><g fill="#000000" fill-opacity="1"><g transform="translate(190.027885, 53.432733)"><g><path d="M 21.25 -22.546875 L 20.921875 -18.546875 L 13.96875 -19.09375 L 12.359375 1 L 7.609375 0.609375 L 9.21875 -19.484375 L 2.265625 -20.046875 L 2.59375 -24.046875 Z M 21.25 -22.546875 "/></g></g></g><g fill="#000000" fill-opacity="1"><g transform="translate(208.659592, 55.023766)"><g><path d="M 2.578125 0.515625 L 6.1875 -17.359375 L 10.546875 -16.46875 L 10.015625 -13.8125 L 10.34375 -13.671875 C 10.96875 -14.585938 11.675781 -15.207031 12.46875 -15.53125 C 13.269531 -15.851562 14.171875 -15.914062 15.171875 -15.71875 C 16.191406 -15.507812 16.9375 -15.175781 17.40625 -14.71875 L 15.84375 -11 L 15.5 -11 C 15.226562 -11.175781 14.960938 -11.316406 14.703125 -11.421875 C 14.441406 -11.535156 14.117188 -11.632812 13.734375 -11.71875 C 12.472656 -11.96875 11.425781 -11.71875 10.59375 -10.96875 C 9.757812 -10.21875 9.144531 -8.875 8.75 -6.9375 L 7.0625 1.421875 Z M 2.578125 0.515625 "/></g></g></g><g fill="#000000" fill-opacity="1"><g transform="translate(221.407903, 57.299012)"><g><path d="M 7.8125 2.96875 C 5.875 2.320312 4.613281 1.3125 4.03125 -0.0625 C 3.457031 -1.4375 3.503906 -3.117188 4.171875 -5.109375 L 7.984375 -16.5625 L 12.328125 -15.109375 L 8.6875 -4.203125 C 8.34375 -3.140625 8.3125 -2.285156 8.59375 -1.640625 C 8.882812 -1.003906 9.507812 -0.523438 10.46875 -0.203125 C 11.664062 0.191406 12.734375 0.109375 13.671875 -0.453125 C 14.609375 -1.023438 15.359375 -2.160156 15.921875 -3.859375 L 18.9375 -12.90625 L 23.28125 -11.453125 L 17.515625 5.84375 L 13.34375 4.453125 L 14.1875 1.921875 L 13.890625 1.71875 C 13.003906 2.53125 12.078125 3.046875 11.109375 3.265625 C 10.148438 3.484375 9.050781 3.382812 7.8125 2.96875 Z M 7.8125 2.96875 "/></g></g></g><g fill="#000000" fill-opacity="1"><g transform="translate(240.072763, 63.665599)"><g><path d="M 13.234375 1.484375 L 12.828125 5.0625 C 12.210938 5.21875 11.519531 5.238281 10.75 5.125 C 9.976562 5.007812 9.164062 4.75 8.3125 4.34375 C 6.519531 3.488281 5.390625 2.359375 4.921875 0.953125 C 4.460938 -0.453125 4.675781 -2.082031 5.5625 -3.9375 L 9.28125 -11.75 L 6.78125 -12.953125 L 8.34375 -16.25 L 10.84375 -15.046875 L 12.375 -18.25 L 16.828125 -16.953125 L 14.984375 -13.078125 L 19.65625 -10.859375 L 18.09375 -7.5625 L 13.421875 -9.78125 L 9.84375 -2.265625 C 9.445312 -1.441406 9.328125 -0.765625 9.484375 -0.234375 C 9.648438 0.296875 10.054688 0.710938 10.703125 1.015625 C 11.441406 1.367188 12.179688 1.476562 12.921875 1.34375 Z M 13.234375 1.484375 "/></g></g></g><g fill="#000000" fill-opacity="1"><g transform="translate(251.770267, 68.896136)"><g><path d="M 2.21875 1.40625 L 15.96875 -20.140625 L 19.828125 -17.671875 L 14.609375 -9.5 L 14.859375 -9.25 C 15.847656 -9.675781 16.84375 -9.851562 17.84375 -9.78125 C 18.84375 -9.71875 19.875 -9.347656 20.9375 -8.671875 C 24.320312 -6.515625 24.789062 -3.515625 22.34375 0.328125 L 16.03125 10.21875 L 12.171875 7.765625 L 18.171875 -1.640625 C 18.835938 -2.691406 19.109375 -3.585938 18.984375 -4.328125 C 18.867188 -5.078125 18.375 -5.734375 17.5 -6.296875 C 16.414062 -6.984375 15.328125 -7.164062 14.234375 -6.84375 C 13.148438 -6.53125 12.125 -5.609375 11.15625 -4.078125 L 6.078125 3.875 Z M 2.21875 1.40625 "/></g></g></g><g fill="#000000" fill-opacity="1"><g transform="translate(268.65321, 79.993322)"><g/></g></g><g fill="#000000" fill-opacity="1"><g transform="translate(274.39947, 84.478334)"><g><path d="M 17.296875 -11.921875 C 16.679688 -12.472656 16.34375 -13.109375 16.28125 -13.828125 C 16.226562 -14.546875 16.46875 -15.203125 17 -15.796875 C 17.519531 -16.378906 18.140625 -16.679688 18.859375 -16.703125 C 19.585938 -16.734375 20.257812 -16.472656 20.875 -15.921875 C 21.28125 -15.554688 21.566406 -15.140625 21.734375 -14.671875 C 21.898438 -14.210938 21.9375 -13.753906 21.84375 -13.296875 C 21.75 -12.835938 21.53125 -12.414062 21.1875 -12.03125 C 20.84375 -11.644531 20.445312 -11.378906 20 -11.234375 C 19.550781 -11.097656 19.085938 -11.085938 18.609375 -11.203125 C 18.140625 -11.316406 17.703125 -11.554688 17.296875 -11.921875 Z M 1.953125 1.75 L 14.125 -11.828125 L 17.53125 -8.765625 L 5.359375 4.8125 Z M 1.953125 1.75 "/></g></g></g><g fill="#000000" fill-opacity="1"><g transform="translate(281.073481, 89.960356)"><g><path d="M 1.75 1.953125 L 15.328125 -10.21875 L 18.28125 -6.9375 L 16.28125 -5.15625 L 16.4375 -4.84375 C 18.738281 -5.382812 20.738281 -4.707031 22.4375 -2.8125 C 23.84375 -1.25 24.445312 0.28125 24.25 1.78125 C 24.0625 3.289062 23.15625 4.773438 21.53125 6.234375 L 12.703125 14.15625 L 9.640625 10.75 L 18.046875 3.203125 C 18.941406 2.398438 19.425781 1.632812 19.5 0.90625 C 19.582031 0.1875 19.265625 -0.566406 18.546875 -1.359375 C 17.671875 -2.335938 16.671875 -2.816406 15.546875 -2.796875 C 14.429688 -2.773438 13.195312 -2.15625 11.84375 -0.9375 L 4.8125 5.359375 Z M 1.75 1.953125 "/></g></g></g><g fill="#000000" fill-opacity="1"><g transform="translate(294.359289, 105.180183)"><g/></g></g><g fill="#000000" fill-opacity="1"><g transform="translate(298.699638, 110.591997)"><g><path d="M 24.84375 -5.484375 L 7.46875 4.78125 L 13 14.140625 L 9.5625 16.171875 L 1.59375 2.703125 L 22.40625 -9.59375 Z M 24.84375 -5.484375 "/></g></g></g><g fill="#000000" fill-opacity="1"><g transform="translate(308.016408, 126.007287)"><g><path d="M 3.734375 9.90625 C 3.054688 8.257812 2.796875 6.671875 2.953125 5.140625 C 3.117188 3.617188 3.707031 2.242188 4.71875 1.015625 C 5.738281 -0.203125 7.179688 -1.195312 9.046875 -1.96875 C 10.898438 -2.738281 12.625 -3.050781 14.21875 -2.90625 C 15.820312 -2.757812 17.21875 -2.203125 18.40625 -1.234375 C 19.601562 -0.273438 20.539062 1.023438 21.21875 2.671875 C 21.90625 4.328125 22.164062 5.921875 22 7.453125 C 21.84375 8.984375 21.25 10.363281 20.21875 11.59375 C 19.195312 12.832031 17.757812 13.835938 15.90625 14.609375 C 14.039062 15.378906 12.3125 15.6875 10.71875 15.53125 C 9.132812 15.375 7.742188 14.8125 6.546875 13.84375 C 5.359375 12.875 4.421875 11.5625 3.734375 9.90625 Z M 7.3125 8.4375 C 8.394531 11.0625 10.65625 11.660156 14.09375 10.234375 C 15.875 9.492188 17.039062 8.613281 17.59375 7.59375 C 18.144531 6.582031 18.15625 5.4375 17.625 4.15625 C 16.539062 1.539062 14.28125 0.945312 10.84375 2.375 C 7.40625 3.800781 6.226562 5.820312 7.3125 8.4375 Z M 7.3125 8.4375 "/></g></g></g><g fill="#000000" fill-opacity="1"><g transform="translate(315.574591, 144.119873)"><g><path d="M 3.125 12.15625 L 1.765625 6.875 L 17.734375 -4.203125 L 18.9375 0.453125 L 7.46875 8.078125 L 7.5625 8.4375 L 21.28125 9.609375 L 22.453125 14.140625 Z M 3.125 12.15625 "/></g></g></g><g fill="#000000" fill-opacity="1"><g transform="translate(320.180383, 161.614301)"><g><path d="M 10.09375 16.96875 L 8.75 5.328125 C 7.1875 5.640625 6.085938 6.21875 5.453125 7.0625 C 4.828125 7.914062 4.59375 9.003906 4.75 10.328125 C 4.863281 11.378906 5.15625 12.203125 5.625 12.796875 C 6.09375 13.398438 6.742188 13.851562 7.578125 14.15625 L 7.625 14.515625 L 6.015625 17.734375 C 4.671875 17.296875 3.535156 16.523438 2.609375 15.421875 C 1.691406 14.328125 1.117188 12.78125 0.890625 10.78125 C 0.671875 8.914062 0.835938 7.257812 1.390625 5.8125 C 1.941406 4.363281 2.878906 3.1875 4.203125 2.28125 C 5.523438 1.382812 7.203125 0.816406 9.234375 0.578125 C 11.296875 0.347656 13.078125 0.539062 14.578125 1.15625 C 16.078125 1.769531 17.25 2.695312 18.09375 3.9375 C 18.9375 5.1875 19.457031 6.640625 19.65625 8.296875 C 19.945312 10.847656 19.492188 12.882812 18.296875 14.40625 C 17.097656 15.925781 15.1875 16.835938 12.5625 17.140625 C 11.601562 17.253906 10.859375 17.3125 10.328125 17.3125 Z M 12.578125 12.734375 C 13.953125 12.523438 14.921875 12.085938 15.484375 11.421875 C 16.046875 10.753906 16.265625 9.847656 16.140625 8.703125 C 15.867188 6.398438 14.390625 5.191406 11.703125 5.078125 Z M 12.578125 12.734375 "/></g></g></g><g fill="#000000" fill-opacity="1"><g transform="translate(7.983351, 343.687022)"><g><path d="M 8.765625 -11.734375 L 8.765625 -4.421875 L 21.53125 -4.421875 L 21.53125 0 L 3.46875 0 L 3.46875 -26.734375 L 21.234375 -26.734375 L 21.234375 -22.3125 L 8.765625 -22.3125 L 8.765625 -16.0625 L 19.65625 -16.0625 L 19.65625 -11.734375 Z M 8.765625 -11.734375 "/></g></g></g><g fill="#000000" fill-opacity="1"><g transform="translate(30.965852, 343.687022)"><g><path d="M 8.375 0.390625 C 6.5625 0.390625 5.175781 -0.0976562 4.21875 -1.078125 C 3.257812 -2.066406 2.78125 -3.5625 2.78125 -5.5625 L 2.78125 -28.265625 L 7.84375 -28.265625 L 7.84375 -5.765625 C 7.84375 -4.523438 8.351562 -3.90625 9.375 -3.90625 C 9.675781 -3.90625 9.988281 -3.957031 10.3125 -4.0625 L 10.5625 -3.984375 L 11.03125 -0.09375 C 10.75 0.0507812 10.375 0.164062 9.90625 0.25 C 9.445312 0.34375 8.9375 0.390625 8.375 0.390625 Z M 8.375 0.390625 "/></g></g></g><g fill="#000000" fill-opacity="1"><g transform="translate(42.557658, 343.687022)"><g><path d="M 8.375 0.390625 C 6.5625 0.390625 5.175781 -0.0976562 4.21875 -1.078125 C 3.257812 -2.066406 2.78125 -3.5625 2.78125 -5.5625 L 2.78125 -28.265625 L 7.84375 -28.265625 L 7.84375 -5.765625 C 7.84375 -4.523438 8.351562 -3.90625 9.375 -3.90625 C 9.675781 -3.90625 9.988281 -3.957031 10.3125 -4.0625 L 10.5625 -3.984375 L 11.03125 -0.09375 C 10.75 0.0507812 10.375 0.164062 9.90625 0.25 C 9.445312 0.34375 8.9375 0.390625 8.375 0.390625 Z M 8.375 0.390625 "/></g></g></g><g fill="#000000" fill-opacity="1"><g transform="translate(54.149464, 343.687022)"><g><path d="M 5.4375 -22.578125 C 4.519531 -22.578125 3.773438 -22.851562 3.203125 -23.40625 C 2.628906 -23.96875 2.34375 -24.6875 2.34375 -25.5625 C 2.34375 -26.425781 2.628906 -27.132812 3.203125 -27.6875 C 3.773438 -28.25 4.519531 -28.53125 5.4375 -28.53125 C 6.039062 -28.53125 6.578125 -28.398438 7.046875 -28.140625 C 7.523438 -27.890625 7.894531 -27.539062 8.15625 -27.09375 C 8.425781 -26.644531 8.5625 -26.132812 8.5625 -25.5625 C 8.5625 -24.988281 8.425781 -24.476562 8.15625 -24.03125 C 7.894531 -23.582031 7.523438 -23.226562 7.046875 -22.96875 C 6.578125 -22.707031 6.039062 -22.578125 5.4375 -22.578125 Z M 2.90625 0 L 2.90625 -20.171875 L 7.96875 -20.171875 L 7.96875 0 Z M 2.90625 0 "/></g></g></g><g fill="#000000" fill-opacity="1"><g transform="translate(65.009926, 343.687022)"><g><path d="M 9.4375 0.390625 C 8.0625 0.390625 6.800781 0.226562 5.65625 -0.09375 C 4.507812 -0.414062 3.53125 -0.859375 2.71875 -1.421875 C 1.90625 -1.992188 1.304688 -2.648438 0.921875 -3.390625 L 3.734375 -6.421875 L 4.109375 -6.421875 C 4.785156 -5.515625 5.578125 -4.835938 6.484375 -4.390625 C 7.398438 -3.941406 8.394531 -3.71875 9.46875 -3.71875 C 10.457031 -3.71875 11.203125 -3.890625 11.703125 -4.234375 C 12.203125 -4.585938 12.453125 -5.097656 12.453125 -5.765625 C 12.453125 -6.273438 12.269531 -6.703125 11.90625 -7.046875 C 11.550781 -7.398438 10.972656 -7.671875 10.171875 -7.859375 L 7.5 -8.5 C 5.5 -8.976562 4.035156 -9.707031 3.109375 -10.6875 C 2.191406 -11.664062 1.734375 -12.910156 1.734375 -14.421875 C 1.734375 -15.679688 2.050781 -16.773438 2.6875 -17.703125 C 3.332031 -18.628906 4.238281 -19.335938 5.40625 -19.828125 C 6.570312 -20.316406 7.925781 -20.5625 9.46875 -20.5625 C 11.289062 -20.5625 12.796875 -20.296875 13.984375 -19.765625 C 15.179688 -19.242188 16.113281 -18.546875 16.78125 -17.671875 L 14.078125 -14.734375 L 13.71875 -14.734375 C 13.15625 -15.367188 12.519531 -15.832031 11.8125 -16.125 C 11.113281 -16.414062 10.332031 -16.5625 9.46875 -16.5625 C 7.46875 -16.5625 6.46875 -15.941406 6.46875 -14.703125 C 6.46875 -14.179688 6.65625 -13.753906 7.03125 -13.421875 C 7.40625 -13.085938 8.0625 -12.820312 9 -12.625 L 11.484375 -12.0625 C 13.535156 -11.625 15.03125 -10.921875 15.96875 -9.953125 C 16.914062 -8.984375 17.390625 -7.679688 17.390625 -6.046875 C 17.390625 -4.773438 17.070312 -3.648438 16.4375 -2.671875 C 15.800781 -1.691406 14.882812 -0.9375 13.6875 -0.40625 C 12.5 0.125 11.082031 0.390625 9.4375 0.390625 Z M 9.4375 0.390625 "/></g></g></g><g fill="#000000" fill-opacity="1"><g transform="translate(83.604361, 343.687022)"><g/></g></g><g fill="#000000" fill-opacity="1"><g transform="translate(92.435352, 343.687022)"><g><path d="M 3.46875 0 L 3.46875 -26.734375 L 14.890625 -26.734375 C 16.535156 -26.734375 17.925781 -26.472656 19.0625 -25.953125 C 20.207031 -25.441406 21.070312 -24.707031 21.65625 -23.75 C 22.238281 -22.789062 22.53125 -21.660156 22.53125 -20.359375 C 22.53125 -19.171875 22.242188 -18.125 21.671875 -17.21875 C 21.097656 -16.320312 20.273438 -15.597656 19.203125 -15.046875 L 19.203125 -14.671875 C 20.878906 -14.234375 22.175781 -13.429688 23.09375 -12.265625 C 24.007812 -11.109375 24.46875 -9.691406 24.46875 -8.015625 C 24.46875 -5.453125 23.695312 -3.472656 22.15625 -2.078125 C 20.613281 -0.691406 18.320312 0 15.28125 0 Z M 13.78125 -16.078125 C 16.25 -16.078125 17.484375 -17.1875 17.484375 -19.40625 C 17.484375 -20.539062 17.175781 -21.382812 16.5625 -21.9375 C 15.957031 -22.488281 15.03125 -22.765625 13.78125 -22.765625 L 8.765625 -22.765625 L 8.765625 -16.078125 Z M 14.765625 -4.1875 C 17.671875 -4.1875 19.125 -5.507812 19.125 -8.15625 C 19.125 -10.8125 17.671875 -12.140625 14.765625 -12.140625 L 8.765625 -12.140625 L 8.765625 -4.1875 Z M 14.765625 -4.1875 "/></g></g></g><g fill="#000000" fill-opacity="1"><g transform="translate(118.580908, 343.687022)"><g><path d="M 7.859375 0.390625 C 6.566406 0.390625 5.445312 0.148438 4.5 -0.328125 C 3.550781 -0.804688 2.816406 -1.503906 2.296875 -2.421875 C 1.785156 -3.335938 1.53125 -4.445312 1.53125 -5.75 C 1.53125 -6.9375 1.785156 -7.9375 2.296875 -8.75 C 2.816406 -9.5625 3.613281 -10.222656 4.6875 -10.734375 C 5.757812 -11.253906 7.160156 -11.65625 8.890625 -11.9375 C 10.097656 -12.132812 11.015625 -12.347656 11.640625 -12.578125 C 12.265625 -12.804688 12.6875 -13.066406 12.90625 -13.359375 C 13.125 -13.660156 13.234375 -14.035156 13.234375 -14.484375 C 13.234375 -15.128906 13.007812 -15.625 12.5625 -15.96875 C 12.113281 -16.3125 11.363281 -16.484375 10.3125 -16.484375 C 9.1875 -16.484375 8.117188 -16.234375 7.109375 -15.734375 C 6.097656 -15.234375 5.222656 -14.570312 4.484375 -13.75 L 4.109375 -13.75 L 2 -16.953125 C 3.019531 -18.085938 4.265625 -18.972656 5.734375 -19.609375 C 7.210938 -20.242188 8.820312 -20.5625 10.5625 -20.5625 C 13.238281 -20.5625 15.171875 -19.992188 16.359375 -18.859375 C 17.554688 -17.722656 18.15625 -16.113281 18.15625 -14.03125 L 18.15625 -5.265625 C 18.15625 -4.359375 18.550781 -3.90625 19.34375 -3.90625 C 19.65625 -3.90625 19.957031 -3.960938 20.25 -4.078125 L 20.5 -4 L 20.859375 -0.46875 C 20.585938 -0.289062 20.203125 -0.144531 19.703125 -0.03125 C 19.203125 0.0820312 18.648438 0.140625 18.046875 0.140625 C 16.835938 0.140625 15.894531 -0.0859375 15.21875 -0.546875 C 14.539062 -1.015625 14.054688 -1.738281 13.765625 -2.71875 L 13.390625 -2.765625 C 12.398438 -0.660156 10.554688 0.390625 7.859375 0.390625 Z M 9.46875 -3.40625 C 10.644531 -3.40625 11.582031 -3.796875 12.28125 -4.578125 C 12.976562 -5.367188 13.328125 -6.460938 13.328125 -7.859375 L 13.328125 -9.90625 L 12.984375 -9.984375 C 12.679688 -9.742188 12.28125 -9.539062 11.78125 -9.375 C 11.289062 -9.207031 10.582031 -9.046875 9.65625 -8.890625 C 8.5625 -8.703125 7.769531 -8.382812 7.28125 -7.9375 C 6.800781 -7.5 6.5625 -6.867188 6.5625 -6.046875 C 6.5625 -5.179688 6.816406 -4.523438 7.328125 -4.078125 C 7.835938 -3.628906 8.550781 -3.40625 9.46875 -3.40625 Z M 9.46875 -3.40625 "/></g></g></g><g fill="#000000" fill-opacity="1"><g transform="translate(139.844751, 343.687022)"><g><path d="M 2.90625 8.171875 L 2.90625 -20.171875 L 7.96875 -20.171875 L 7.96875 -17.53125 L 8.359375 -17.46875 C 8.953125 -18.488281 9.75 -19.257812 10.75 -19.78125 C 11.75 -20.300781 12.921875 -20.5625 14.265625 -20.5625 C 15.890625 -20.5625 17.304688 -20.175781 18.515625 -19.40625 C 19.722656 -18.632812 20.664062 -17.460938 21.34375 -15.890625 C 22.019531 -14.328125 22.359375 -12.390625 22.359375 -10.078125 C 22.359375 -7.773438 22 -5.84375 21.28125 -4.28125 C 20.570312 -2.71875 19.582031 -1.546875 18.3125 -0.765625 C 17.050781 0.00390625 15.59375 0.390625 13.9375 0.390625 C 12.675781 0.390625 11.585938 0.179688 10.671875 -0.234375 C 9.765625 -0.660156 8.992188 -1.320312 8.359375 -2.21875 L 7.96875 -2.140625 L 7.96875 8.171875 Z M 12.53125 -3.90625 C 14.039062 -3.90625 15.1875 -4.398438 15.96875 -5.390625 C 16.75 -6.378906 17.140625 -7.941406 17.140625 -10.078125 C 17.140625 -12.210938 16.75 -13.773438 15.96875 -14.765625 C 15.1875 -15.753906 14.039062 -16.25 12.53125 -16.25 C 11.113281 -16.25 9.988281 -15.738281 9.15625 -14.71875 C 8.332031 -13.695312 7.921875 -12.148438 7.921875 -10.078125 C 7.921875 -8.015625 8.332031 -6.46875 9.15625 -5.4375 C 9.988281 -4.414062 11.113281 -3.90625 12.53125 -3.90625 Z M 12.53125 -3.90625 "/></g></g></g><g fill="#000000" fill-opacity="1"><g transform="translate(163.997402, 343.687022)"><g><path d="M 13.921875 -4.8125 L 15.234375 -1.0625 C 14.679688 -0.613281 13.988281 -0.257812 13.15625 0 C 12.332031 0.257812 11.394531 0.390625 10.34375 0.390625 C 8.164062 0.390625 6.507812 -0.203125 5.375 -1.390625 C 4.238281 -2.585938 3.671875 -4.316406 3.671875 -6.578125 L 3.671875 -16.171875 L 0.609375 -16.171875 L 0.609375 -20.1875 L 3.671875 -20.1875 L 3.671875 -24.125 L 8.734375 -24.9375 L 8.734375 -20.1875 L 14.46875 -20.1875 L 14.46875 -16.171875 L 8.734375 -16.171875 L 8.734375 -6.953125 C 8.734375 -5.953125 8.941406 -5.222656 9.359375 -4.765625 C 9.773438 -4.304688 10.378906 -4.078125 11.171875 -4.078125 C 12.078125 -4.078125 12.863281 -4.320312 13.53125 -4.8125 Z M 13.921875 -4.8125 "/></g></g></g><g fill="#000000" fill-opacity="1"><g transform="translate(179.666461, 343.687022)"><g><path d="M 5.4375 -22.578125 C 4.519531 -22.578125 3.773438 -22.851562 3.203125 -23.40625 C 2.628906 -23.96875 2.34375 -24.6875 2.34375 -25.5625 C 2.34375 -26.425781 2.628906 -27.132812 3.203125 -27.6875 C 3.773438 -28.25 4.519531 -28.53125 5.4375 -28.53125 C 6.039062 -28.53125 6.578125 -28.398438 7.046875 -28.140625 C 7.523438 -27.890625 7.894531 -27.539062 8.15625 -27.09375 C 8.425781 -26.644531 8.5625 -26.132812 8.5625 -25.5625 C 8.5625 -24.988281 8.425781 -24.476562 8.15625 -24.03125 C 7.894531 -23.582031 7.523438 -23.226562 7.046875 -22.96875 C 6.578125 -22.707031 6.039062 -22.578125 5.4375 -22.578125 Z M 2.90625 0 L 2.90625 -20.171875 L 7.96875 -20.171875 L 7.96875 0 Z M 2.90625 0 "/></g></g></g><g fill="#000000" fill-opacity="1"><g transform="translate(190.526923, 343.687022)"><g><path d="M 9.4375 0.390625 C 8.0625 0.390625 6.800781 0.226562 5.65625 -0.09375 C 4.507812 -0.414062 3.53125 -0.859375 2.71875 -1.421875 C 1.90625 -1.992188 1.304688 -2.648438 0.921875 -3.390625 L 3.734375 -6.421875 L 4.109375 -6.421875 C 4.785156 -5.515625 5.578125 -4.835938 6.484375 -4.390625 C 7.398438 -3.941406 8.394531 -3.71875 9.46875 -3.71875 C 10.457031 -3.71875 11.203125 -3.890625 11.703125 -4.234375 C 12.203125 -4.585938 12.453125 -5.097656 12.453125 -5.765625 C 12.453125 -6.273438 12.269531 -6.703125 11.90625 -7.046875 C 11.550781 -7.398438 10.972656 -7.671875 10.171875 -7.859375 L 7.5 -8.5 C 5.5 -8.976562 4.035156 -9.707031 3.109375 -10.6875 C 2.191406 -11.664062 1.734375 -12.910156 1.734375 -14.421875 C 1.734375 -15.679688 2.050781 -16.773438 2.6875 -17.703125 C 3.332031 -18.628906 4.238281 -19.335938 5.40625 -19.828125 C 6.570312 -20.316406 7.925781 -20.5625 9.46875 -20.5625 C 11.289062 -20.5625 12.796875 -20.296875 13.984375 -19.765625 C 15.179688 -19.242188 16.113281 -18.546875 16.78125 -17.671875 L 14.078125 -14.734375 L 13.71875 -14.734375 C 13.15625 -15.367188 12.519531 -15.832031 11.8125 -16.125 C 11.113281 -16.414062 10.332031 -16.5625 9.46875 -16.5625 C 7.46875 -16.5625 6.46875 -15.941406 6.46875 -14.703125 C 6.46875 -14.179688 6.65625 -13.753906 7.03125 -13.421875 C 7.40625 -13.085938 8.0625 -12.820312 9 -12.625 L 11.484375 -12.0625 C 13.535156 -11.625 15.03125 -10.921875 15.96875 -9.953125 C 16.914062 -8.984375 17.390625 -7.679688 17.390625 -6.046875 C 17.390625 -4.773438 17.070312 -3.648438 16.4375 -2.671875 C 15.800781 -1.691406 14.882812 -0.9375 13.6875 -0.40625 C 12.5 0.125 11.082031 0.390625 9.4375 0.390625 Z M 9.4375 0.390625 "/></g></g></g><g fill="#000000" fill-opacity="1"><g transform="translate(209.121359, 343.687022)"><g><path d="M 13.921875 -4.8125 L 15.234375 -1.0625 C 14.679688 -0.613281 13.988281 -0.257812 13.15625 0 C 12.332031 0.257812 11.394531 0.390625 10.34375 0.390625 C 8.164062 0.390625 6.507812 -0.203125 5.375 -1.390625 C 4.238281 -2.585938 3.671875 -4.316406 3.671875 -6.578125 L 3.671875 -16.171875 L 0.609375 -16.171875 L 0.609375 -20.1875 L 3.671875 -20.1875 L 3.671875 -24.125 L 8.734375 -24.9375 L 8.734375 -20.1875 L 14.46875 -20.1875 L 14.46875 -16.171875 L 8.734375 -16.171875 L 8.734375 -6.953125 C 8.734375 -5.953125 8.941406 -5.222656 9.359375 -4.765625 C 9.773438 -4.304688 10.378906 -4.078125 11.171875 -4.078125 C 12.078125 -4.078125 12.863281 -4.320312 13.53125 -4.8125 Z M 13.921875 -4.8125 "/></g></g></g><g fill="#000000" fill-opacity="1"><g transform="translate(224.790418, 343.687022)"><g/></g></g><g fill="#000000" fill-opacity="1"><g transform="translate(233.621408, 343.687022)"><g><path d="M 14.609375 0.390625 C 12.148438 0.390625 9.976562 -0.117188 8.09375 -1.140625 C 6.21875 -2.171875 4.75 -3.710938 3.6875 -5.765625 C 2.632812 -7.816406 2.109375 -10.351562 2.109375 -13.375 C 2.109375 -16.382812 2.632812 -18.914062 3.6875 -20.96875 C 4.75 -23.019531 6.21875 -24.554688 8.09375 -25.578125 C 9.976562 -26.609375 12.148438 -27.125 14.609375 -27.125 C 17.179688 -27.125 19.363281 -26.617188 21.15625 -25.609375 C 22.957031 -24.609375 24.242188 -23.078125 25.015625 -21.015625 L 21.15625 -18.65625 L 20.703125 -18.671875 C 20.128906 -20.054688 19.347656 -21.050781 18.359375 -21.65625 C 17.378906 -22.257812 16.128906 -22.5625 14.609375 -22.5625 C 12.390625 -22.5625 10.65625 -21.828125 9.40625 -20.359375 C 8.164062 -18.890625 7.546875 -16.5625 7.546875 -13.375 C 7.546875 -10.1875 8.164062 -7.859375 9.40625 -6.390625 C 10.65625 -4.921875 12.390625 -4.1875 14.609375 -4.1875 C 18.085938 -4.1875 20.21875 -5.875 21 -9.25 L 21.453125 -9.25 L 25.34375 -7.21875 C 24.613281 -4.6875 23.363281 -2.785156 21.59375 -1.515625 C 19.832031 -0.242188 17.503906 0.390625 14.609375 0.390625 Z M 14.609375 0.390625 "/></g></g></g><g fill="#000000" fill-opacity="1"><g transform="translate(259.840098, 343.687022)"><g><path d="M 2.90625 0 L 2.90625 -28.265625 L 7.96875 -28.265625 L 7.96875 -17.53125 L 8.359375 -17.46875 C 9.023438 -18.457031 9.847656 -19.21875 10.828125 -19.75 C 11.804688 -20.289062 12.984375 -20.5625 14.359375 -20.5625 C 18.804688 -20.5625 21.03125 -18.035156 21.03125 -12.984375 L 21.03125 0 L 15.96875 0 L 15.96875 -12.34375 C 15.96875 -13.71875 15.691406 -14.71875 15.140625 -15.34375 C 14.585938 -15.96875 13.734375 -16.28125 12.578125 -16.28125 C 11.160156 -16.28125 10.035156 -15.804688 9.203125 -14.859375 C 8.378906 -13.910156 7.96875 -12.4375 7.96875 -10.4375 L 7.96875 0 Z M 2.90625 0 "/></g></g></g><g fill="#000000" fill-opacity="1"><g transform="translate(283.462516, 343.687022)"><g><path d="M 9.234375 0.390625 C 6.960938 0.390625 5.285156 -0.226562 4.203125 -1.46875 C 3.128906 -2.707031 2.59375 -4.484375 2.59375 -6.796875 L 2.59375 -20.171875 L 7.65625 -20.171875 L 7.65625 -7.4375 C 7.65625 -6.207031 7.921875 -5.304688 8.453125 -4.734375 C 8.984375 -4.171875 9.804688 -3.890625 10.921875 -3.890625 C 12.316406 -3.890625 13.40625 -4.347656 14.1875 -5.265625 C 14.96875 -6.191406 15.359375 -7.644531 15.359375 -9.625 L 15.359375 -20.171875 L 20.421875 -20.171875 L 20.421875 0 L 15.5625 0 L 15.5625 -2.96875 L 15.171875 -3.046875 C 14.523438 -1.890625 13.734375 -1.023438 12.796875 -0.453125 C 11.867188 0.109375 10.679688 0.390625 9.234375 0.390625 Z M 9.234375 0.390625 "/></g></g></g><g fill="#000000" fill-opacity="1"><g transform="translate(306.792397, 343.687022)"><g><path d="M 2.90625 0 L 2.90625 -20.171875 L 7.828125 -20.171875 L 7.828125 -17.171875 L 8.21875 -17.09375 C 8.695312 -18.21875 9.332031 -19.039062 10.125 -19.5625 C 10.914062 -20.09375 11.878906 -20.359375 13.015625 -20.359375 C 14.160156 -20.359375 15.035156 -20.160156 15.640625 -19.765625 L 14.78125 -15.390625 L 14.390625 -15.328125 C 14.066406 -15.460938 13.75 -15.554688 13.4375 -15.609375 C 13.132812 -15.671875 12.765625 -15.703125 12.328125 -15.703125 C 10.910156 -15.703125 9.828125 -15.207031 9.078125 -14.21875 C 8.335938 -13.226562 7.96875 -11.632812 7.96875 -9.4375 L 7.96875 0 Z M 2.90625 0 "/></g></g></g><g fill="#000000" fill-opacity="1"><g transform="translate(322.607707, 343.687022)"><g><path d="M 11.765625 0.390625 C 9.804688 0.390625 8.078125 -0.015625 6.578125 -0.828125 C 5.078125 -1.640625 3.90625 -2.832031 3.0625 -4.40625 C 2.226562 -5.976562 1.8125 -7.867188 1.8125 -10.078125 C 1.8125 -12.296875 2.226562 -14.191406 3.0625 -15.765625 C 3.90625 -17.335938 5.070312 -18.53125 6.5625 -19.34375 C 8.050781 -20.15625 9.753906 -20.5625 11.671875 -20.5625 C 15.921875 -20.5625 18.644531 -19.015625 19.84375 -15.921875 L 16.375 -13.4375 L 15.984375 -13.4375 C 15.566406 -14.394531 15.023438 -15.101562 14.359375 -15.5625 C 13.703125 -16.019531 12.804688 -16.25 11.671875 -16.25 C 10.203125 -16.25 9.054688 -15.742188 8.234375 -14.734375 C 7.421875 -13.722656 7.015625 -12.171875 7.015625 -10.078125 C 7.015625 -8.003906 7.429688 -6.457031 8.265625 -5.4375 C 9.097656 -4.414062 10.265625 -3.90625 11.765625 -3.90625 C 12.859375 -3.90625 13.785156 -4.203125 14.546875 -4.796875 C 15.304688 -5.390625 15.851562 -6.242188 16.1875 -7.359375 L 16.5625 -7.390625 L 20.171875 -5.40625 C 19.660156 -3.707031 18.710938 -2.316406 17.328125 -1.234375 C 15.941406 -0.148438 14.085938 0.390625 11.765625 0.390625 Z M 11.765625 0.390625 "/></g></g></g><g fill="#000000" fill-opacity="1"><g transform="translate(343.396194, 343.687022)"><g><path d="M 2.90625 0 L 2.90625 -28.265625 L 7.96875 -28.265625 L 7.96875 -17.53125 L 8.359375 -17.46875 C 9.023438 -18.457031 9.847656 -19.21875 10.828125 -19.75 C 11.804688 -20.289062 12.984375 -20.5625 14.359375 -20.5625 C 18.804688 -20.5625 21.03125 -18.035156 21.03125 -12.984375 L 21.03125 0 L 15.96875 0 L 15.96875 -12.34375 C 15.96875 -13.71875 15.691406 -14.71875 15.140625 -15.34375 C 14.585938 -15.96875 13.734375 -16.28125 12.578125 -16.28125 C 11.160156 -16.28125 10.035156 -15.804688 9.203125 -14.859375 C 8.378906 -13.910156 7.96875 -12.4375 7.96875 -10.4375 L 7.96875 0 Z M 2.90625 0 "/></g></g></g><g clip-path="url(#ceddeb1744)"><path fill="#000000" d="M 298.753906 305.457031 Z M 127.953125 237.800781 L 100.960938 287.566406 L 85.726562 301.527344 L 117.984375 242.054688 L 131.707031 230.882812 Z M 154.246094 278.96875 C 158.261719 277.859375 161.910156 277.386719 165.222656 277.386719 C 178.902344 277.386719 186.710938 285.410156 189.71875 289.359375 L 189.71875 305.457031 L 85.742188 305.457031 L 100.914062 291.554688 C 102.199219 291.585938 103.445312 291.605469 104.660156 291.605469 C 135.90625 291.605469 143.988281 281.804688 154.246094 278.96875 Z M 217.128906 277.386719 C 220.4375 277.386719 224.089844 277.859375 228.105469 278.96875 C 238.363281 281.804688 246.441406 291.605469 277.6875 291.605469 C 278.902344 291.605469 280.152344 291.585938 281.433594 291.554688 L 296.601562 305.457031 L 192.625 305.457031 L 192.625 289.359375 C 195.640625 285.410156 203.441406 277.386719 217.128906 277.386719 Z M 194.082031 220.882812 C 195.816406 218.625 198.074219 217.570312 201.128906 217.570312 C 206.414062 217.570312 213.046875 220.699219 218.890625 223.449219 C 222.945312 225.367188 226.777344 227.167969 229.949219 227.835938 C 232.4375 228.367188 234.914062 228.636719 237.300781 228.636719 C 240.863281 228.636719 243.628906 228.058594 245.488281 227.484375 L 251.839844 239.191406 L 278.6875 288.6875 C 278.351562 288.6875 278.023438 288.6875 277.6875 288.6875 C 267.898438 288.6875 259.625 287.71875 252.394531 285.730469 C 246.214844 284.027344 241.785156 281.847656 237.875 279.921875 C 234.828125 278.425781 231.960938 277.015625 228.878906 276.160156 C 224.835938 275.046875 220.886719 274.476562 217.128906 274.476562 C 206.882812 274.476562 199.707031 278.683594 195.488281 282.203125 C 194.992188 282.617188 194.523438 283.03125 194.082031 283.445312 Z M 264.367188 242.054688 L 296.632812 301.53125 L 281.390625 287.570312 L 254.398438 237.800781 L 250.644531 230.886719 Z M 307.046875 306.871094 L 266.992188 233.023438 C 266.375 231.890625 265.191406 231.179688 263.902344 231.179688 L 255.746094 231.179688 L 246.820312 223.839844 C 246.820312 223.839844 243.371094 225.71875 237.300781 225.71875 C 235.324219 225.71875 233.058594 225.523438 230.550781 224.988281 C 223.273438 223.449219 210.867188 214.65625 201.128906 214.65625 C 197.214844 214.65625 193.730469 216.074219 191.171875 219.953125 C 188.621094 216.074219 185.136719 214.65625 181.222656 214.65625 L 181.222656 217.570312 C 184.273438 217.570312 186.535156 218.625 188.269531 220.882812 L 188.269531 283.445312 C 187.828125 283.03125 187.359375 282.617188 186.863281 282.207031 C 182.644531 278.683594 175.460938 274.476562 165.214844 274.476562 C 161.464844 274.476562 157.511719 275.046875 153.472656 276.160156 C 150.390625 277.015625 147.515625 278.425781 144.476562 279.921875 C 140.566406 281.847656 136.128906 284.027344 129.949219 285.730469 C 122.726562 287.71875 114.453125 288.6875 104.660156 288.6875 C 104.328125 288.6875 104 288.6875 103.664062 288.6875 L 130.511719 239.191406 L 136.863281 227.484375 C 138.722656 228.058594 141.488281 228.636719 145.046875 228.636719 C 147.4375 228.636719 149.90625 228.367188 152.402344 227.835938 C 155.578125 227.167969 159.402344 225.367188 163.460938 223.449219 C 169.304688 220.699219 175.9375 217.570312 181.222656 217.570312 L 181.222656 214.65625 C 171.476562 214.65625 159.078125 223.449219 151.800781 224.988281 C 149.292969 225.523438 147.027344 225.71875 145.046875 225.71875 C 138.980469 225.71875 135.527344 223.839844 135.527344 223.839844 L 135.527344 223.847656 L 135.527344 223.839844 L 126.605469 231.179688 L 118.449219 231.179688 C 117.160156 231.179688 115.976562 231.890625 115.359375 233.023438 L 75.296875 306.871094 C 74.027344 309.21875 75.726562 312.074219 78.386719 312.074219 L 303.960938 312.074219 C 306.625 312.074219 308.324219 309.21875 307.046875 306.871094 " fill-opacity="1" fill-rule="nonzero"/></g></svg>